<svg width="18" height="19" viewBox="0 0 18 19" fill="none" xmlns="http://www.w3.org/2000/svg">
<path d="M17.665 8.86211C17.6374 9.57086 17.5305 10.2663 17.3444 10.9483C17.1583 11.6303 16.8757 12.2454 16.4965 12.7937C16.1243 13.342 15.6486 13.7799 15.0696 14.1076C14.4974 14.4285 13.8081 14.589 13.0016 14.589C12.5673 14.589 12.1675 14.5154 11.8021 14.3684C11.4437 14.2212 11.1334 14.0107 10.8715 13.7365C10.6165 13.4623 10.42 13.1314 10.2821 12.7436C10.1512 12.3558 10.0994 11.9211 10.127 11.4397L10.6544 5.55236H12.9809L12.4639 11.4397C12.4294 11.7205 12.4329 11.9512 12.4742 12.1318C12.5225 12.3123 12.5949 12.4527 12.6914 12.553C12.7948 12.6533 12.9119 12.7269 13.0429 12.7736C13.1808 12.8138 13.3187 12.8338 13.4566 12.8338C13.753 12.8338 14.0252 12.7369 14.2734 12.543C14.5285 12.3491 14.7491 12.0782 14.9351 11.7306C15.1282 11.3762 15.2798 10.965 15.3901 10.4969C15.5004 10.0222 15.5624 9.51068 15.5763 8.9624C15.6176 8.12661 15.5728 7.351 15.4418 6.63557C15.3109 5.91342 15.0868 5.26485 14.7697 4.68982C14.4595 4.11479 14.0563 3.62669 13.5599 3.22551C13.0636 2.81764 12.4742 2.50672 11.7918 2.29276C11.1094 2.07211 10.3269 1.96178 9.44457 1.96178C8.61048 1.96178 7.84188 2.08882 7.13876 2.34291C6.4356 2.59699 5.80486 2.9614 5.24652 3.43613C4.69505 3.90417 4.2194 4.46248 3.81959 5.11106C3.42667 5.75962 3.11646 6.47844 2.88898 7.2674C2.6615 8.05641 2.52708 8.89554 2.48572 9.78485C2.43747 10.7477 2.48916 11.6169 2.64082 12.3925C2.79937 13.1615 3.05098 13.8334 3.39564 14.4085C3.74031 14.9902 4.17115 15.4716 4.68816 15.8527C5.20516 16.2405 5.80486 16.5314 6.48732 16.7253C7.17667 16.9192 7.93839 17.0161 8.77248 17.0161C9.37219 17.0161 9.98229 16.9526 10.6027 16.8256C11.23 16.6985 11.7607 16.5448 12.1951 16.3642L12.5879 18.0292C12.1054 18.33 11.5023 18.554 10.7785 18.7011C10.0547 18.8482 9.3722 18.9218 8.73113 18.9218C7.61439 18.9218 6.5976 18.7981 5.68082 18.5507C4.76398 18.3033 3.95401 17.9322 3.25088 17.4374C2.55465 16.9426 1.97216 16.3275 1.50341 15.592C1.04156 14.8631 0.700335 14.014 0.479745 13.0444C0.259157 12.0749 0.17299 10.9884 0.221243 9.78485C0.269497 8.68829 0.445278 7.65859 0.748586 6.69575C1.0519 5.72619 1.46895 4.84695 1.99973 4.05796C2.53742 3.26897 3.17851 2.5903 3.92299 2.02196C4.66748 1.44693 5.505 1.00563 6.4356 0.69806C7.37314 0.390485 8.38992 0.236698 9.48596 0.236698C10.5751 0.236698 11.5608 0.370425 12.4432 0.637882C13.3325 0.905335 14.1114 1.29315 14.7801 1.80131C15.4487 2.30279 16.0037 2.9079 16.4448 3.61666C16.8929 4.32542 17.2169 5.1211 17.4168 6.00369C17.6236 6.88632 17.7063 7.83909 17.665 8.86211ZM7.31453 10.0055C7.28007 10.4334 7.28007 10.8145 7.31453 11.1488C7.35588 11.4765 7.42825 11.7506 7.53169 11.9713C7.64197 12.1919 7.78327 12.3591 7.95559 12.4728C8.13485 12.5864 8.34508 12.6433 8.58639 12.6433C8.70355 12.6433 8.83797 12.6165 8.98964 12.563C9.14126 12.5029 9.29638 12.3992 9.45494 12.2521C9.6135 12.0983 9.76857 11.8843 9.92024 11.6102C10.0719 11.3294 10.2028 10.965 10.3132 10.517L11.2748 11.6604C11.1162 12.1418 10.9232 12.563 10.6957 12.9241C10.4682 13.2852 10.2063 13.586 9.90992 13.8268C9.62038 14.0674 9.29638 14.248 8.93792 14.3684C8.58639 14.4887 8.20034 14.5489 7.77983 14.5489C7.27662 14.5489 6.82165 14.4419 6.41495 14.2279C6.01514 14.014 5.67738 13.7097 5.40161 13.3153C5.12588 12.914 4.92598 12.436 4.80189 11.881C4.68471 11.3194 4.66058 10.6942 4.72951 10.0055C4.81223 9.33018 4.95355 8.70498 5.15346 8.12995C5.36026 7.55491 5.61533 7.0434 5.91863 6.59546C6.22193 6.14075 6.57007 5.75294 6.96295 5.432C7.35588 5.11106 7.78327 4.86701 8.24513 4.69985C8.71387 4.53269 9.20675 4.44911 9.72378 4.44911C10.5441 4.44911 11.1852 4.56278 11.647 4.79012C12.1158 5.01077 12.5604 5.26485 12.9809 5.55236L11.8435 7.11699C11.6436 6.94311 11.3816 6.77596 11.0576 6.61549C10.7406 6.44834 10.3614 6.36474 9.92024 6.36474C9.50661 6.36474 9.15164 6.44501 8.85522 6.60548C8.55881 6.75928 8.30718 6.99328 8.10039 7.30755C7.8936 7.6151 7.72467 7.99623 7.59374 8.45089C7.46965 8.89888 7.37658 9.41707 7.31453 10.0055Z" fill="#5D5D5D"/>
</svg>
