<svg width="23" height="23" viewBox="0 0 23 23" fill="none" xmlns="http://www.w3.org/2000/svg">
<path d="M19.1666 11.5C19.1666 10.443 18.307 9.58334 17.2499 9.58334H16.2916V6.70834C16.2916 4.06621 14.142 1.91667 11.4999 1.91667C8.85779 1.91667 6.70825 4.06621 6.70825 6.70834V9.58334H5.74992C4.69288 9.58334 3.83325 10.443 3.83325 11.5V19.1667C3.83325 20.2237 4.69288 21.0833 5.74992 21.0833H17.2499C18.307 21.0833 19.1666 20.2237 19.1666 19.1667V11.5ZM8.62492 6.70834C8.62492 5.12325 9.91483 3.83334 11.4999 3.83334C13.085 3.83334 14.3749 5.12325 14.3749 6.70834V9.58334H8.62492V6.70834Z" fill="#5D5D5D"/>
</svg>
