<svg width="24" height="16" viewBox="0 0 24 16" fill="none" xmlns="http://www.w3.org/2000/svg">
<path d="M8.80715 8C8.80715 8.72894 9.13194 9.42802 9.71006 9.94346C10.2882 10.4589 11.0723 10.7485 11.8899 10.7485C12.7075 10.7485 13.4916 10.4589 14.0697 9.94346C14.6479 9.42802 14.9726 8.72894 14.9726 8C14.9726 7.27106 14.6479 6.57198 14.0697 6.05654C13.4916 5.5411 12.7075 5.25153 11.8899 5.25153C11.0723 5.25153 10.2882 5.5411 9.71006 6.05654C9.13194 6.57198 8.80715 7.27106 8.80715 8ZM23.841 7.36687C21.2317 2.46626 17.2875 0 12 0C6.70978 0 2.76827 2.46626 0.158941 7.36932C0.0542802 7.56691 0 7.78271 0 8.00123C0 8.21974 0.0542802 8.43554 0.158941 8.63313C2.76827 13.5337 6.71253 16 12 16C17.2902 16 21.2317 13.5337 23.841 8.63068C24.053 8.23313 24.053 7.77178 23.841 7.36687ZM11.8899 12.319C9.21451 12.319 7.04558 10.3853 7.04558 8C7.04558 5.61472 9.21451 3.68098 11.8899 3.68098C14.5653 3.68098 16.7342 5.61472 16.7342 8C16.7342 10.3853 14.5653 12.319 11.8899 12.319Z" fill="#5D5D5D"/>
</svg>
