<svg width="317" height="291" viewBox="0 0 317 291" fill="none" xmlns="http://www.w3.org/2000/svg">
<path d="M282.139 273.978C282.253 279.378 281.508 284.763 279.931 289.93C279.876 290.118 279.809 290.305 279.743 290.493H247.235C247.699 288.205 248.437 285.981 249.432 283.869C252.138 278.129 256.554 273.216 260.916 268.336C266.923 261.613 272.787 254.945 273.714 246.201C276.095 249.83 277.996 253.753 279.368 257.871C277.688 258.493 276.146 259.438 274.829 260.653C274.465 260.995 274.078 261.492 274.266 261.966C274.443 262.364 274.929 262.496 275.359 262.584C276.397 262.783 277.435 262.982 278.473 263.17C279.29 263.335 280.119 263.49 280.947 263.644C281.675 267.043 282.074 270.503 282.139 273.978V273.978Z" fill="#F2F2F2"/>
<path d="M309.447 270.401C304.235 273.569 300.922 278.471 298.217 283.958C295.863 284.494 293.689 285.636 291.912 287.27C291.536 287.612 291.15 288.109 291.349 288.583C291.514 288.981 292.011 289.113 292.442 289.201C293.469 289.4 294.518 289.599 295.545 289.787C295.445 290.018 295.346 290.261 295.247 290.493H260.795C262.359 288.384 264.091 286.406 265.973 284.576C266.382 284.167 266.802 283.781 267.232 283.384C271.624 279.415 276.667 276.234 282.139 273.978C290.761 270.374 300.188 269.139 309.447 270.401V270.401Z" fill="#F2F2F2"/>
<path d="M266.537 290.493H235.861C235.694 288.037 235.709 285.572 235.905 283.119C236.57 275.524 238.873 268.163 242.657 261.544C246.441 254.924 251.616 249.204 257.824 244.777C256.234 250.441 257.051 256.071 258.708 261.723C258.476 261.801 258.244 261.867 258.034 261.955C256.354 262.577 254.812 263.523 253.496 264.737C253.131 265.079 252.745 265.576 252.933 266.051C253.098 266.448 253.595 266.581 254.026 266.669C255.064 266.868 256.102 267.067 257.129 267.254C257.957 267.42 258.785 267.574 259.613 267.74C260 267.806 260.386 267.884 260.773 267.961C260.828 268.093 260.861 268.215 260.916 268.336C262.86 273.691 264.98 279.089 265.973 284.576C266.219 285.953 266.389 287.342 266.481 288.738C266.515 289.323 266.537 289.908 266.537 290.493Z" fill="#F2F2F2"/>
<path d="M31.8048 20.7595C37.5386 20.7595 42.1868 16.1123 42.1868 10.3797C42.1868 4.64717 37.5386 0 31.8048 0C26.0709 0 21.4228 4.64717 21.4228 10.3797C21.4228 16.1123 26.0709 20.7595 31.8048 20.7595Z" fill="#FD6584"/>
<path d="M55.0421 5.46534C54.7486 4.50525 54.1807 3.65189 53.4085 3.0102C52.6362 2.36852 51.6931 1.96651 50.6953 1.85362C50.6728 1.85044 50.6514 1.85464 50.6289 1.85319C50.5999 1.84432 50.5703 1.8375 50.5403 1.83279C45.7924 1.2193 40.3118 3.48957 38.3331 7.98976C37.8503 7.33158 37.2145 6.80079 36.4806 6.44324C35.7467 6.0857 34.9368 5.91214 34.1208 5.93756C33.0686 6.00766 32.0636 6.40024 31.2426 7.06185C30.4216 7.72347 29.8245 8.62197 29.5325 9.63504C29.5014 9.75903 29.5107 9.88971 29.5589 10.0081C29.607 10.1265 29.6917 10.2265 29.8006 10.2936C30.1141 10.5593 30.4856 10.7478 30.8853 10.844C31.7475 11.0267 32.6128 11.194 33.4812 11.3459C35.1757 11.6424 36.879 11.8821 38.5912 12.065C42.0667 12.4374 45.5639 12.5695 49.0576 12.4605C50.2213 12.4243 51.3434 12.3857 52.4096 11.8723C53.1852 11.4892 53.8479 10.9111 54.3324 10.1946C54.789 9.50596 55.0891 8.72569 55.2117 7.90864C55.3344 7.0916 55.2765 6.25762 55.0421 5.46534Z" fill="#F0F0F0"/>
<path d="M33.4639 19.305C33.1703 18.3449 32.6025 17.4916 31.8302 16.8499C31.0579 16.2082 30.1149 15.8062 29.1171 15.6933C29.0945 15.6901 29.0731 15.6943 29.0506 15.6928C29.0216 15.684 28.992 15.6772 28.9621 15.6724C24.2142 15.059 18.7336 17.3292 16.7548 21.8294C16.272 21.1712 15.6362 20.6404 14.9023 20.2829C14.1684 19.9253 13.3585 19.7518 12.5425 19.7772C11.4903 19.8473 10.4853 20.2399 9.66431 20.9015C8.8433 21.5631 8.24617 22.4616 7.95422 23.4747C7.92316 23.5987 7.9324 23.7294 7.9806 23.8478C8.0288 23.9662 8.11345 24.0662 8.22229 24.1332C8.53587 24.3989 8.90736 24.5874 9.30696 24.6837C10.1692 24.8663 11.0345 25.0336 11.9029 25.1856C13.5974 25.4821 15.3007 25.7217 17.0129 25.9047C20.4885 26.277 23.9856 26.4092 27.4794 26.3002C28.643 26.264 29.7651 26.2253 30.8313 25.7119C31.6069 25.3288 32.2696 24.7507 32.7542 24.0343C33.2107 23.3456 33.5109 22.5653 33.6335 21.7483C33.7561 20.9312 33.6982 20.0973 33.4639 19.305V19.305Z" fill="#F0F0F0"/>
<path d="M133.339 180.41C133.077 180.796 132.386 181.254 132.116 181.633L132.404 180.762L132.306 180.56L131.694 179.338L116.125 147.967L116.119 147.961L89.7246 94.8052V94.7991L89.119 93.5824V93.5763L76.0567 67.2676L75.4391 66.0204C75.9038 66.0326 76.3685 66.051 76.8333 66.0754L77.4571 67.3288L90.483 93.5763L90.489 93.5824L91.0945 94.7991V94.8052L116.815 146.609V146.615L117.421 147.832V147.838L132.991 179.185L133.199 179.607L133.339 180.41Z" fill="#3F3D56"/>
<path d="M131.603 94.8051H15.0805C15.3925 94.3955 15.7102 93.9859 16.0405 93.5823H130.643C130.973 93.9858 131.291 94.3955 131.603 94.8051Z" fill="#3F3D56"/>
<path d="M146.365 146.615C146.328 147.025 146.286 147.435 146.23 147.838H116.381V146.615H146.365Z" fill="#3F3D56"/>
<path d="M19.5141 89.5532V187.94C19.0922 187.494 18.6885 187.041 18.2911 186.589V90.9044C18.6885 90.452 19.0922 89.9995 19.5141 89.5532Z" fill="#3F3D56"/>
<path d="M132.686 179.337H18.9028V180.56H132.686V179.337Z" fill="#3F3D56"/>
<path d="M132.587 180.41H132.728V180.209C132.685 180.279 132.638 180.346 132.587 180.41V180.41ZM131.645 94.6552C131.333 94.2455 131.016 93.8359 130.685 93.4324C124.19 85.2843 116.03 78.6157 106.751 73.8722C97.4713 69.1287 87.2865 66.4194 76.8763 65.9254C76.4117 65.9009 75.947 65.8826 75.4822 65.8704C74.7849 65.852 74.0877 65.8398 73.3845 65.8398C63.2706 65.8344 53.2654 67.9256 44.0007 71.9813C34.7359 76.037 26.4129 81.9692 19.5571 89.4032C19.1352 89.8495 18.7315 90.302 18.334 90.7544C17.5574 91.6287 16.8072 92.5214 16.0835 93.4324C15.7532 93.8359 15.4355 94.2455 15.1235 94.6552C4.78877 108.125 -0.54193 124.768 0.0437471 141.734C0.629424 158.701 7.09506 174.936 18.334 187.662C18.7315 188.114 19.1352 188.567 19.5571 189.013C26.9475 197.015 36.0292 203.269 46.1415 207.32C56.2537 211.371 67.1421 213.117 78.0143 212.431C88.8865 211.745 99.469 208.645 108.992 203.355C118.515 198.066 126.738 190.72 133.064 181.853C133.334 181.474 133.603 181.095 133.865 180.71C140.647 170.887 144.908 159.546 146.273 147.688C146.329 147.285 146.371 146.875 146.408 146.465C146.646 144.081 146.767 141.662 146.769 139.208C146.787 123.095 141.47 107.429 131.645 94.6552V94.6552ZM145.044 147.688C143.713 159.07 139.665 169.966 133.242 179.457C133.076 179.707 132.905 179.958 132.728 180.209C132.685 180.279 132.638 180.346 132.587 180.41C132.545 180.478 132.496 180.545 132.447 180.612C126.208 189.524 118.033 196.907 108.534 202.21C99.0352 207.513 88.4587 210.597 77.5978 211.231C66.7368 211.865 55.8732 210.033 45.8214 205.872C35.7695 201.71 26.7904 195.328 19.5571 187.203C19.1351 186.738 18.7254 186.274 18.334 185.797C7.58055 173.13 1.53957 157.135 1.2353 140.524C0.931018 123.912 6.38217 107.707 16.6645 94.6552C16.9888 94.2455 17.3128 93.8359 17.649 93.4324C17.8694 93.1572 18.0954 92.8882 18.334 92.6192C18.7254 92.1423 19.1351 91.6776 19.5571 91.213C26.3128 83.6132 34.603 77.5314 43.8812 73.3686C53.1594 69.2058 63.2148 67.0566 73.3845 67.0626C74.2958 67.0626 75.2008 67.0809 76.0996 67.1176C76.5705 67.1298 77.0355 67.1543 77.5 67.1787C87.4525 67.7475 97.1787 70.3744 106.064 74.8933C114.949 79.4123 122.8 85.7249 129.12 93.4323C129.456 93.8359 129.78 94.2455 130.104 94.6551C141.644 109.325 147.049 127.895 145.185 146.465C145.142 146.875 145.099 147.285 145.044 147.688L145.044 147.688ZM132.587 180.41H132.728V180.209C132.685 180.279 132.638 180.346 132.587 180.41H132.587Z" fill="#CCCCCC"/>
<path d="M64.1357 42.5747C64.1357 42.911 64.1248 43.2444 64.103 43.575C63.9808 45.4817 63.4991 47.348 62.6831 49.0757C62.6767 49.0904 62.6693 49.1041 62.663 49.1179C62.625 49.198 62.586 49.2781 62.546 49.3572C62.3033 49.8458 62.0341 50.3208 61.7395 50.78C60.394 52.8883 58.5499 54.6327 56.37 55.8591C54.1901 57.0856 51.7416 57.7564 49.2408 57.8121L49.3916 66.4801L51.3577 65.4451L51.7088 66.1123L49.4064 67.3243L49.6878 83.4228L49.691 83.6379L48.1708 83.9762L48.1739 83.7601L48.6526 57.8132C46.6397 57.7843 44.6526 57.356 42.8067 56.553C40.9608 55.75 39.2928 54.5884 37.8996 53.1356C37.8037 53.0366 37.7088 52.9343 37.616 52.8332L37.6055 52.8215C36.4447 51.5559 35.5059 50.1035 34.8287 48.5255C34.8434 48.5424 34.8593 48.5582 34.874 48.575C28.5922 32.7921 32.2469 25.4755 42.1038 28.9309C42.1565 28.9046 42.2103 28.8793 42.263 28.8529C45.7106 27.1927 49.6562 26.8881 53.3179 27.9994C56.9796 29.1108 60.09 31.557 62.0326 34.8532C62.1254 35.0092 62.215 35.1684 62.3014 35.3286C63.5081 37.5531 64.1387 40.0442 64.1357 42.5747V42.5747Z" fill="#E5E5E5"/>
<path d="M82.0622 29.1495C81.8784 32.1777 81.0947 35.1392 79.7567 37.862C77.1821 43.0712 72.6629 47.0208 67.0306 48.4943C67.0212 48.4992 67.0106 48.5014 67.0001 48.5004C65.5829 48.87 64.1283 49.0771 62.6643 49.118H62.5419C62.3891 49.124 62.2362 49.124 62.0833 49.124C61.9793 49.124 61.8754 49.124 61.7714 49.118C56.5277 49.0371 51.5261 46.8977 47.8464 43.1617C44.1668 39.4257 42.1044 34.3928 42.1044 29.1495V28.9294C42.1136 27.6547 42.2988 26.3873 42.6548 25.1632C42.6548 25.1571 42.6609 25.151 42.6609 25.1448C43.3251 23.0177 44.523 21.0959 46.1405 19.5627C50.1461 15.6009 56.4878 13.1125 62.0833 9.17502C74.3385 0.554238 83.3403 9.13223 82.0622 29.1495Z" fill="#E5E5E5"/>
<path opacity="0.2" d="M79.7567 37.862C77.1821 43.0712 72.6629 47.0208 67.0306 48.4943C67.0213 48.4992 67.0106 48.5014 67.0001 48.5004C65.5866 48.8512 64.1386 49.044 62.6826 49.0751H62.542C62.2851 49.0813 62.0283 49.0813 61.7714 49.0751C56.5136 48.944 51.5188 46.7483 47.8679 42.9632C44.217 39.1781 42.2036 34.108 42.2634 28.8499C42.2821 27.6117 42.4131 26.3777 42.6548 25.1632C42.6548 25.1571 42.6609 25.151 42.6609 25.1448C43.3251 23.0177 44.523 21.0959 46.1406 19.5627C45.5973 22.1535 45.5746 24.8265 46.0737 27.4261C46.5728 30.0258 47.5837 32.5003 49.0478 34.7059C50.5119 36.9115 52.3999 38.8041 54.602 40.2738C56.8041 41.7435 59.2765 42.7609 61.8754 43.2668C62.065 43.3035 62.2545 43.3402 62.4441 43.3707C62.9945 43.4625 63.5449 43.5297 64.1014 43.5725C66.9684 43.8051 69.8517 43.4152 72.5539 42.4296C75.2561 41.4439 77.7131 39.8858 79.7567 37.862V37.862Z" fill="black"/>
<path d="M62.7604 61.5872L65.7768 59.9999L65.3166 59.1257L62.7401 60.4817L62.5465 49.3576V49.3562L62.5419 49.1206V49.0786L62.4418 43.3718L62.3016 35.3289L62.1942 29.1491H62.1379L62.0328 34.8531V34.8545L61.8778 43.269L61.7708 49.075L61.7704 49.1234L61.7395 50.7799L61.128 84.0097L61.1238 84.2291L63.1644 84.8017L63.1607 84.5804L62.7604 61.5872Z" fill="#3F3D56"/>
<path d="M135.541 100.938C122.859 98.3975 110.136 96.0928 97.259 94.6824C85.0488 93.2465 72.7358 92.8905 60.4631 93.6186C49.3794 94.3661 38.2008 96.1188 27.7885 100.114C19.7649 103.194 11.2122 107.852 6.87818 115.621C2.70038 123.11 4.32986 131.746 8.87896 138.655C14.3525 146.969 22.8876 152.666 31.7614 156.83C41.8649 161.571 52.6716 164.644 63.4921 167.257C68.98 168.583 74.4975 169.781 80.0156 170.973C81.1667 171.222 81.6586 169.454 80.5033 169.204C69.3757 166.8 58.2159 164.389 47.3646 160.909C37.3229 157.688 27.0465 153.563 18.8233 146.801C12.1706 141.33 5.84536 133.34 6.23803 124.255C6.63387 115.096 14.3197 108.702 21.8529 104.766C31.2672 99.8471 41.9632 97.4511 52.444 96.1988C64.4448 94.8619 76.5473 94.6973 88.58 95.7075C104.661 96.9308 120.505 99.7687 136.288 102.947" fill="black"/>
<path d="M76.0016 115.524C81.3386 118.191 84.5878 121.713 84.5878 125.576C84.5878 133.899 69.525 140.645 50.9442 140.645C42.8658 140.645 35.4544 139.369 29.6549 137.244C35.8148 140.322 44.7566 142.26 54.7123 142.26C73.293 142.26 88.3559 135.513 88.3559 127.191C88.3559 122.487 83.5415 118.287 76.0016 115.524Z" fill="#F1F1F1"/>
<path d="M87.873 121.24C93.8952 124.25 97.5616 128.224 97.5616 132.584C97.5616 141.974 80.5649 149.587 59.5987 149.587C50.4831 149.587 42.1204 148.147 35.5762 145.749C42.527 149.222 52.6168 151.409 63.8505 151.409C84.8167 151.409 101.813 143.796 101.813 134.405C101.813 129.097 96.3809 124.359 87.873 121.24Z" fill="#F1F1F1"/>
<path d="M71.4585 118.042C75.2185 119.921 77.5077 122.402 77.5077 125.124C77.5077 130.988 66.8955 135.741 53.8049 135.741C48.7049 135.807 43.6314 134.996 38.806 133.344C43.1458 135.513 49.4456 136.878 56.4596 136.878C69.5502 136.878 80.1624 132.125 80.1624 126.262C80.1624 122.947 76.7705 119.989 71.4585 118.042Z" fill="#F1F1F1"/>
<path d="M51.4362 129.27C43.7044 129.27 39.9443 127.15 38.1515 125.371C37.8244 125.044 37.6016 124.628 37.5112 124.175C37.4209 123.722 37.4671 123.252 37.6441 122.825C37.8211 122.398 38.1208 122.033 38.5053 121.776C38.8898 121.52 39.3418 121.383 39.804 121.384H66.7777C67.1449 121.384 67.503 121.498 67.8023 121.711C68.1016 121.923 68.327 122.224 68.4473 122.571C68.5676 122.918 68.5767 123.294 68.4734 123.646C68.37 123.998 68.1594 124.31 67.8708 124.537C65.1231 126.696 60.0415 129.27 51.4362 129.27Z" fill="#3F3D56"/>
<path d="M57.0371 102.131C54.9343 100.534 52.295 99.8123 49.6718 100.117C54.3288 101.267 50.6538 107.701 54.8948 114.374C57.2061 118.011 52.7112 119.794 48.4294 120.282C50.7211 120.835 53.1334 120.582 55.2607 119.567C57.388 118.551 59.1007 116.834 60.1107 114.704C61.1207 112.574 61.3665 110.162 60.8068 107.872C60.247 105.582 58.9159 103.555 57.0371 102.131V102.131Z" fill="#3F3D56"/>
<path d="M52.264 98.7769H51.2708V122.412H52.264V98.7769Z" fill="#3F3D56"/>
<path d="M147.84 105.41C145.202 103.553 142.224 102.234 139.076 101.527C135.928 100.82 132.672 100.74 129.493 101.292C126.315 101.844 123.276 103.016 120.55 104.741C117.824 106.467 115.465 108.713 113.608 111.35C105.795 122.441 97.9561 151.525 103.49 168.373C119.995 150.942 145.353 149.131 153.781 139.635C162.786 129.488 158.933 113.221 147.84 105.41Z" fill="#638FFF"/>
<path d="M133.36 130.525C137.785 130.525 141.372 126.939 141.372 122.515C141.372 118.091 137.785 114.504 133.36 114.504C128.935 114.504 125.348 118.091 125.348 122.515C125.348 126.939 128.935 130.525 133.36 130.525Z" fill="white"/>
<path d="M96.7166 177.097C99.6149 177.097 101.964 174.748 101.964 171.85C101.964 168.952 99.6149 166.603 96.7166 166.603C93.8182 166.603 91.4687 168.952 91.4687 171.85C91.4687 174.748 93.8182 177.097 96.7166 177.097Z" fill="#638FFF"/>
<path opacity="0.2" d="M141.932 120.666C142.463 121.575 142.809 122.579 142.952 123.621C143.094 124.663 143.03 125.724 142.762 126.741C142.495 127.758 142.03 128.713 141.393 129.551C140.757 130.388 139.962 131.093 139.053 131.623C138.144 132.153 137.14 132.5 136.098 132.642C135.055 132.785 133.995 132.72 132.977 132.453C131.96 132.186 131.005 131.721 130.167 131.084C129.329 130.448 128.625 129.653 128.094 128.745C129.524 129.999 131.354 130.703 133.256 130.732C135.159 130.761 137.009 130.112 138.476 128.901C139.944 127.69 140.932 125.997 141.265 124.124C141.598 122.251 141.253 120.321 140.292 118.68C140.942 119.249 141.496 119.92 141.932 120.666V120.666Z" fill="#231F20"/>
<path opacity="0.2" d="M153.796 139.673C145.368 149.169 120.01 150.98 103.505 168.411C102.99 166.817 102.593 165.186 102.318 163.534C118.816 147.688 142.762 145.685 150.905 136.511C158.193 128.299 157.058 116.079 150.481 107.577C159.501 115.937 162.048 130.374 153.796 139.673Z" fill="#231F20"/>
<path d="M240.201 284.572H234.22L231.375 261.508H240.202L240.201 284.572Z" fill="#FFB6B6"/>
<path d="M241.726 290.368L222.442 290.368V290.124C222.442 288.134 223.233 286.225 224.64 284.818C226.048 283.41 227.957 282.62 229.948 282.62H229.948L233.471 279.948L240.043 282.62L241.726 282.62L241.726 290.368Z" fill="#2F2E41"/>
<path d="M217.024 280.804L211.19 282.121L203.333 260.25L211.944 258.307L217.024 280.804Z" fill="#FFB6B6"/>
<path d="M219.789 286.122L200.978 290.369L200.924 290.131C200.486 288.189 200.837 286.153 201.9 284.471C202.963 282.788 204.651 281.596 206.592 281.158L206.593 281.158L209.44 277.776L216.44 278.935L218.082 278.564L219.789 286.122Z" fill="#2F2E41"/>
<path d="M247.776 143.573C250.58 152.028 250.283 161.206 247.102 171.056L245.742 226.517C247.99 228.991 249.401 239.078 245.938 246.301C241.312 255.947 244.499 269.286 241.229 275.685H231.746L229.416 249.632L227.363 246.694L227.051 223.195C225.791 220.214 224.332 217.257 226.894 213.803L226.825 209.721L226.461 187.964L212.159 208.873C211.753 213.605 209.333 216.085 206.13 217.687L210.559 237.232C218.306 243.861 216.412 254.121 216.54 263.619L219.08 274.827L207.408 275.87L202.257 260.671L196.466 251.304L186.394 213.86L193.418 197.562L196.289 190.901L212.321 153.7L247.776 143.573Z" fill="#2F2E41"/>
<path d="M148.693 113.418C149.161 113.884 149.725 114.243 150.346 114.468C150.968 114.693 151.63 114.779 152.289 114.72C152.947 114.662 153.584 114.459 154.155 114.128C154.727 113.796 155.218 113.343 155.596 112.801L171.057 117.146L168.519 109.197L154.226 106.29C153.273 105.716 152.143 105.512 151.049 105.716C149.956 105.92 148.975 106.518 148.293 107.397C147.611 108.275 147.275 109.374 147.349 110.483C147.423 111.593 147.901 112.637 148.693 113.418V113.418Z" fill="#FFB8B8"/>
<path d="M161.339 106.998L176.429 106.887C180.499 105.749 184.79 105.652 188.907 106.604L189.708 106.79L196.005 106.075C199.76 98.5719 206.727 91.7879 216.079 85.5384C217.49 84.402 219.125 83.577 220.877 83.1179C222.629 82.6588 224.459 82.576 226.246 82.8748C228.032 83.1736 229.735 83.8473 231.242 84.8516C232.75 85.8559 234.027 87.168 234.991 88.7015V88.7015C236.731 91.4776 237.343 94.8136 236.703 98.0265C236.063 101.239 234.218 104.086 231.547 105.984L203.049 122.736C200.548 124.205 197.708 124.999 194.808 125.038V125.038L194.738 125.074L178.482 118.985L170.119 117.921L158.779 114.626L161.339 106.998Z" fill="#638FFF"/>
<path d="M221.884 71.7895C229.747 71.7895 236.122 65.4162 236.122 57.5545C236.122 49.6927 229.747 43.3195 221.884 43.3195C214.02 43.3195 207.646 49.6927 207.646 57.5545C207.646 65.4162 214.02 71.7895 221.884 71.7895Z" fill="#FFB8B8"/>
<path d="M235.181 66.5825C236.236 65.0771 236.984 62.666 237.427 60.9037C238.018 58.5833 238.115 56.1645 237.712 53.8041C237.309 51.4437 236.414 49.1943 235.085 47.2018C234.595 46.3897 233.893 45.7268 233.053 45.2845C232.192 44.8999 231.056 44.9915 230.456 45.719C230.454 45.0807 230.321 44.4495 230.066 43.8644C229.81 43.2793 229.438 42.7527 228.971 42.3172C228.03 41.451 226.9 40.8159 225.671 40.4622C223.302 39.7402 220.783 39.6727 218.379 40.2668C215.976 40.861 213.778 42.0946 212.019 43.8368C211.332 44.5358 211.577 41.0431 210.814 41.6583C210.075 42.3192 209.107 42.6647 208.116 42.6207C207.141 42.5169 205.348 45.9896 205.338 45.0097C204.313 46.037 203.861 50.3694 204.182 51.785C204.502 53.2005 209.274 52.5748 210.643 53.06C211.549 53.3813 212.533 53.3922 213.472 53.6014C215.141 54.0325 216.594 55.0595 217.557 56.4886C218.52 57.9176 218.927 59.6498 218.7 61.358C219.3 60.5508 220.027 59.8459 220.853 59.2704C221.268 58.9862 221.746 58.8055 222.246 58.7431C222.746 58.6807 223.253 58.7386 223.726 58.9118C224.153 59.1407 224.528 59.4545 224.829 59.8338C225.13 60.2132 225.351 60.65 225.477 61.1176C225.788 62.0329 225.908 63.0045 226.225 63.9178C227.153 66.5975 227.632 69.4105 230.221 70.0459C232.264 70.5473 233.74 68.638 235.181 66.5825Z" fill="#2F2E41"/>
<path d="M248.991 140.751L247.427 137.625C245.514 125.771 243.623 114.715 246.192 104.771C246.353 96.0892 243.669 87.9334 236.217 83.4797L232.855 81.4695L231.154 77.1541L215.484 77.5368L215.438 83.1938L209.826 92.1427V92.1796L210.176 140.875L211.726 145.9L209.388 151.746L210.628 155.476L241.52 150.539L245.113 149.962C245.527 149.83 245.927 149.655 246.307 149.441C247.596 148.726 248.606 147.597 249.175 146.237C249.207 146.159 249.235 146.085 249.263 146.006C249.505 145.372 249.645 144.703 249.678 144.024C249.734 142.892 249.497 141.765 248.991 140.751V140.751Z" fill="#638FFF"/>
<path opacity="0.2" d="M249.678 144.024C249.645 144.703 249.505 145.372 249.263 146.007L246.307 149.441C245.927 149.655 245.527 149.83 245.113 149.962L241.52 150.539L246.717 140.769L235.295 115.767L249.678 144.024Z" fill="black"/>
<path d="M262.11 172.943C261.537 172.552 261.056 172.04 260.702 171.443C260.348 170.846 260.129 170.179 260.06 169.488C259.992 168.798 260.076 168.1 260.306 167.446C260.536 166.791 260.907 166.195 261.393 165.699L253.875 150.596L262.579 151.656L268.384 165.835C269.163 166.706 269.595 167.833 269.599 169.001C269.603 170.169 269.178 171.299 268.405 172.175C267.631 173.051 266.564 173.613 265.404 173.754C264.243 173.896 263.072 173.607 262.11 172.943V172.943Z" fill="#FFB8B8"/>
<path d="M231.632 120.979L237.335 120.191C237.335 120.191 237.886 128.788 240.614 130.091C243.342 131.394 242.422 131.609 242.744 132.988C243.066 134.367 244.522 136.451 246.683 137.402C248.844 138.352 258.674 162.25 258.674 162.25L266.951 160.32C266.185 158.245 265.681 156.083 265.45 153.884C265.159 150.558 261.389 142.712 260.148 141.547C258.906 140.382 259.397 138.329 258.754 135.57C258.11 132.812 258.557 135.37 257.485 130.772C256.412 126.175 244.356 98.6222 243.851 94.3772C243.346 90.1323 237.43 87.6337 237.43 87.6337L232.831 88.7058L231.632 120.979Z" fill="#638FFF"/>
<path d="M136.91 291H316.425C316.577 291 316.724 290.939 316.832 290.832C316.939 290.724 317 290.578 317 290.425C317 290.273 316.939 290.126 316.832 290.019C316.724 289.911 316.577 289.85 316.425 289.85H136.91C136.758 289.85 136.611 289.911 136.503 290.019C136.396 290.126 136.335 290.273 136.335 290.425C136.335 290.578 136.396 290.724 136.503 290.832C136.611 290.939 136.758 291 136.91 291V291V291Z" fill="#CCCCCC"/>
</svg>
