<svg width="411" height="265" viewBox="0 0 411 265" fill="none" xmlns="http://www.w3.org/2000/svg">
<rect width="411" height="265" fill="white"/>
<g clip-path="url(#clip0_37_679)">
<path d="M85.0091 246.795C83.6678 246.795 82.3238 246.859 81.0112 246.988L80.8202 247.006C72.114 247.895 65.7459 253.049 66.0078 258.997L66.0584 260.072C66.0918 260.752 66.1274 261.482 66.1567 262.293C66.1725 262.693 66.6452 263 67.2333 263H281.384C296.482 262.894 311.526 262.761 326.095 262.604C328.829 262.611 331.561 262.447 334.275 262.115C338.324 261.562 341.134 260.465 342.867 258.763C345.022 256.651 345.09 253.993 344.96 250.989C344.694 244.924 344.431 238.552 344.168 232.2C343.936 226.602 343.705 221.018 343.474 215.673C343.332 212.5 343.014 209.7 340.567 207.56C337.914 205.246 333.077 204.072 326.189 204.072C326.105 204.072 326.023 204.072 325.938 204.073C304.351 204.162 282.961 212.73 272.713 225.396C271.533 226.854 270.433 228.415 269.37 229.926C267.815 232.244 266.099 234.45 264.235 236.526C263.2 237.645 262.064 238.667 260.843 239.578C260.76 239.644 260.665 239.716 260.564 239.783C260.334 239.956 260.093 240.124 259.858 240.272C258.5 241.18 257.05 241.941 255.532 242.543L255.381 242.601C255.266 242.649 255.143 242.696 255.019 242.739C254.144 243.062 253.252 243.338 252.347 243.563C248.441 244.557 243.999 244.795 239.145 244.27C234.663 243.77 230.256 242.733 226.019 241.182C221.524 239.543 217.317 237.498 213.249 235.521C211.461 234.652 209.613 233.754 207.767 232.904C207.42 232.743 207.079 232.587 206.732 232.43C204.478 231.416 202.434 230.578 200.484 229.869C195.693 228.114 190.68 227.043 185.592 226.685C180.223 226.346 175.492 226.986 171.533 228.583C170.433 229.026 169.37 229.555 168.353 230.165C163.664 232.976 160.773 237.125 157.978 241.137C154.5 246.127 150.905 251.288 143.804 253.964C135.611 257.053 123.652 255.77 115.191 253.537C112.531 252.835 109.874 252.028 107.305 251.247C106.267 250.931 105.229 250.618 104.189 250.306C102.147 249.698 100.476 249.231 98.9296 248.838L98.4405 248.712C98.1685 248.644 97.8962 248.576 97.6189 248.511C95.7823 248.066 94.0721 247.715 92.3879 247.44L91.9894 247.373C91.1906 247.251 90.4437 247.15 89.7108 247.065L89.4183 247.032C87.9539 246.873 86.482 246.794 85.0091 246.795Z" fill="#F2F2F2"/>
<path d="M201.631 130.623C200.986 130.716 200.329 130.667 199.705 130.478C199.081 130.289 198.507 129.965 198.021 129.53C197.536 129.094 197.151 128.557 196.895 127.956C196.639 127.356 196.517 126.706 196.538 126.053L181.754 120.356L188.448 115.554L201.461 121.7C202.553 121.809 203.567 122.316 204.311 123.124C205.055 123.932 205.478 124.986 205.499 126.086C205.52 127.186 205.138 128.256 204.425 129.092C203.712 129.928 202.717 130.473 201.63 130.623L201.631 130.623Z" fill="#FFB7B7"/>
<path d="M193.182 126.536L195.491 118.371L195.377 118.293L173.755 103.564L155.064 84.7578L144.176 89.12L144.89 92.5757L144.937 92.6182L169.788 114.939L169.811 114.95L193.182 126.536Z" fill="#3F3D56"/>
<path d="M171.032 145.187L137.568 140.483L140.513 119.892H165.15L171.032 145.187Z" fill="#FFB6B6"/>
<path d="M114.172 246.012L121.036 247.611L130.456 221.822L120.325 219.461L114.172 246.012Z" fill="#FFB6B6"/>
<path d="M107.785 257.094L112.708 258.241L114.667 253.785L115.837 258.97L128.893 262.013C129.519 262.159 130.175 262.1 130.765 261.846C131.356 261.591 131.849 261.154 132.174 260.598C132.499 260.043 132.639 259.397 132.572 258.756C132.506 258.116 132.237 257.513 131.804 257.036L123.051 247.386L124.143 242.674L113.024 240.775L107.785 257.094Z" fill="#2F2E41"/>
<path d="M156.528 249.847H163.575L166.929 222.59H156.528V249.847Z" fill="#FFB6B6"/>
<path d="M152.808 262.092H157.862L158.764 257.307L161.074 262.092H174.478C175.121 262.092 175.747 261.886 176.264 261.504C176.782 261.122 177.164 260.585 177.355 259.97C177.546 259.354 177.536 258.694 177.327 258.085C177.117 257.476 176.719 256.95 176.19 256.584L165.486 249.171V244.334L154.227 245.007L152.808 262.092Z" fill="#2F2E41"/>
<path d="M137.145 136.989L169.871 134.378C179.528 157 173.388 193.112 165.966 233.764L155.44 235.128L154.624 169.806L128.237 230.575L117.266 230.013L137.145 136.989Z" fill="#2F2E41"/>
<path d="M156.194 77.4207V66.3184C156.194 62.3728 154.631 58.5888 151.849 55.7988C149.067 53.0089 145.293 51.4415 141.359 51.4415C137.424 51.4415 133.65 53.0089 130.868 55.7988C128.086 58.5888 126.523 62.3728 126.523 66.3184C123.908 71.7823 125.544 74.38 126.523 77.4207C126.524 77.9502 126.734 78.4578 127.107 78.8322C127.481 79.2066 127.987 79.4173 128.515 79.4182H154.201C154.73 79.4176 155.236 79.207 155.61 78.8326C155.983 78.4581 156.193 77.9504 156.194 77.4207Z" fill="#2F2E41"/>
<path d="M145.02 79.2508C151.027 79.2508 155.897 74.3674 155.897 68.3435C155.897 62.3195 151.027 57.4361 145.02 57.4361C139.013 57.4361 134.143 62.3195 134.143 68.3435C134.143 74.3674 139.013 79.2508 145.02 79.2508Z" fill="#FFB7B7"/>
<path d="M159.704 67.2063C159.7 64.0863 158.463 61.095 156.263 58.8888C154.063 56.6826 151.08 55.4416 147.968 55.4381H145.754C142.643 55.4416 139.66 56.6826 137.459 58.8888C135.259 61.095 134.022 64.0863 134.018 67.2063V67.4284C135.677 68.5654 137.251 68.7316 138.698 67.4284L140.294 62.9468L140.613 67.4284H143.032L143.838 65.1674L144 67.4284C147.267 70.2185 153.444 68.8815 159.704 67.4284V67.2063Z" fill="#2F2E41"/>
<path d="M138.677 125.91L166.372 124.854L167.92 106.686C169.113 103.36 169.133 100.503 167.977 98.1991C166.983 96.3055 165.313 94.8578 163.3 94.1456L157.24 86.8062C156.461 85.8629 155.482 85.105 154.375 84.5873C153.267 84.0696 152.059 83.8051 150.837 83.8128L135.091 83.9207C134.712 83.692 132.41 82.5187 127.869 84.4914C122.945 86.6316 124.088 94.0671 124.101 94.1418L124.112 94.2117L124.166 94.2593L134.639 103.105L138.677 125.91Z" fill="#3F3D56"/>
<path d="M264.882 93.9671C247.011 114.163 193.242 118.015 158.243 155.086C146.509 119.253 163.132 57.3992 179.698 33.8109C187.653 22.4835 199.769 14.7889 213.382 12.4199C226.995 10.0509 240.988 13.2016 252.284 21.1788C275.807 37.7904 283.977 72.3874 264.882 93.9671Z" fill="#0065FF"/>
<path d="M221.581 74.5928C230.964 74.5928 238.571 66.9652 238.571 57.5561C238.571 48.147 230.964 40.5194 221.581 40.5194C212.198 40.5194 204.592 48.147 204.592 57.5561C204.592 66.9652 212.198 74.5928 221.581 74.5928Z" fill="white"/>
<path d="M143.881 173.64C150.027 173.64 155.009 168.644 155.009 162.481C155.009 156.319 150.027 151.323 143.881 151.323C137.736 151.323 132.753 156.319 132.753 162.481C132.753 168.644 137.736 173.64 143.881 173.64Z" fill="#0065FF"/>
<path d="M131.151 161.674C130.666 161.238 130.283 160.7 130.028 160.099C129.773 159.498 129.652 158.848 129.675 158.195C129.697 157.542 129.862 156.902 130.157 156.32C130.453 155.738 130.872 155.228 131.386 154.826L126.271 139.794L134.239 141.87L137.871 155.825C138.487 156.735 138.75 157.84 138.608 158.931C138.467 160.022 137.931 161.024 137.102 161.745C136.273 162.466 135.209 162.857 134.112 162.844C133.015 162.832 131.961 162.415 131.149 161.675L131.151 161.674Z" fill="#FFB7B7"/>
<path d="M128.866 152.552L136.597 149.098L134 122.876L136.419 96.4361L126.097 90.8502L123.91 93.6153V93.678L122.751 127.113L122.758 127.138L128.866 152.552Z" fill="#3F3D56"/>
<path d="M313.196 202.287C312.656 204.32 311.236 206.012 309.522 207.245C309.243 207.447 308.956 207.634 308.665 207.81C308.576 207.862 308.486 207.918 308.393 207.967C308.292 208.026 308.192 208.082 308.091 208.135H300.032C299.886 207.84 299.745 207.541 299.603 207.245C296.149 199.967 293.723 192.113 294.137 184.113C294.301 181.01 294.951 177.953 296.063 175.052C298.277 169.272 302.316 164.269 307.871 161.751C308.009 161.687 308.155 161.624 308.296 161.564C308.251 161.725 308.207 161.881 308.162 162.042C307.566 164.195 307.145 166.393 306.903 168.615C306.88 168.786 306.862 168.958 306.847 169.134C306.317 174.491 306.787 179.9 308.233 185.085C308.236 185.096 308.24 185.111 308.244 185.122C308.561 186.269 308.928 187.399 309.347 188.511C309.675 189.389 310.029 190.256 310.416 191.108C312.033 194.684 314.202 198.495 313.196 202.287Z" fill="#E6E6E6"/>
<path d="M308.397 161.732C308.319 161.837 308.24 161.938 308.162 162.042C306.526 164.217 305.136 166.568 304.019 169.052C303.959 169.175 303.903 169.298 303.855 169.425C302.324 172.893 301.341 176.579 300.941 180.351C300.937 180.377 300.934 180.403 300.934 180.429C300.84 181.311 300.784 182.2 300.762 183.089C300.679 184.756 300.859 186.426 301.295 188.036C301.692 189.352 302.389 190.557 303.329 191.556C303.423 191.657 303.516 191.758 303.616 191.855C303.691 191.934 303.773 192.012 303.851 192.087C304.604 192.808 305.427 193.477 306.135 194.25C306.46 194.597 306.753 194.972 307.011 195.371C307.423 196.04 307.689 196.788 307.792 197.568C307.894 198.347 307.831 199.139 307.607 199.892C307.1 201.783 305.941 203.378 304.757 204.899C304.164 205.661 303.553 206.431 303.024 207.245C302.83 207.537 302.651 207.832 302.487 208.135H302.018C302.174 207.832 302.346 207.537 302.532 207.245C303.892 205.097 305.826 203.251 306.828 200.886C307.506 199.291 307.711 197.482 306.854 195.917C306.603 195.461 306.299 195.037 305.949 194.654C305.267 193.88 304.451 193.219 303.71 192.52C303.523 192.345 303.341 192.165 303.165 191.978C302.237 191.032 301.521 189.899 301.064 188.653C300.547 187.071 300.302 185.412 300.341 183.747C300.341 182.686 300.397 181.617 300.501 180.556C300.513 180.422 300.527 180.283 300.542 180.145C301.304 173.468 303.835 167.116 307.872 161.751C307.946 161.646 308.024 161.545 308.103 161.444C308.263 161.235 308.557 161.527 308.397 161.732Z" fill="white"/>
<path d="M300.693 180.592C299.402 180.374 298.231 179.704 297.387 178.7C296.544 177.697 296.084 176.425 296.089 175.113C296.09 175.059 296.111 175.008 296.149 174.97C296.187 174.932 296.237 174.91 296.291 174.909C296.344 174.908 296.396 174.928 296.435 174.964C296.474 175 296.498 175.05 296.501 175.104C296.494 176.326 296.922 177.51 297.709 178.443C298.497 179.376 299.59 179.996 300.793 180.191C301.055 180.234 300.953 180.634 300.693 180.592V180.592Z" fill="white"/>
<path d="M303.226 191.631C305.419 190.094 306.953 187.785 307.523 185.164C307.58 184.905 307.979 185.006 307.922 185.265C307.324 187.992 305.722 190.391 303.437 191.986C303.219 192.137 303.009 191.782 303.226 191.631H303.226Z" fill="white"/>
<path d="M303.895 169.008C304.377 169.196 304.898 169.262 305.412 169.199C305.925 169.135 306.415 168.945 306.837 168.645C307.052 168.49 307.262 168.846 307.048 168.999C306.58 169.329 306.039 169.538 305.472 169.609C304.905 169.681 304.329 169.611 303.795 169.408C303.743 169.393 303.698 169.359 303.671 169.312C303.643 169.266 303.634 169.211 303.646 169.158C303.659 169.105 303.693 169.059 303.74 169.031C303.787 169.003 303.842 168.995 303.895 169.008Z" fill="white"/>
<path d="M336.35 176.181C336.219 176.282 336.085 176.383 335.955 176.487C334.186 177.845 332.53 179.344 331.003 180.971C330.884 181.094 330.764 181.221 330.649 181.348L330.645 181.352C327.025 185.293 324.162 189.871 322.202 194.855L322.191 194.889C322.187 194.9 322.183 194.908 322.179 194.919C321.402 196.914 320.776 198.965 320.305 201.054C319.851 203.094 319.478 205.28 318.766 207.245C318.658 207.548 318.539 207.847 318.412 208.135H301.846C301.902 207.84 301.962 207.541 302.021 207.245C302.864 202.916 304.181 198.693 305.949 194.654C306.008 194.519 306.068 194.385 306.135 194.25C307.047 192.254 308.12 190.336 309.343 188.515C309.343 188.514 309.343 188.514 309.343 188.513C309.344 188.513 309.344 188.512 309.344 188.512C309.344 188.512 309.345 188.511 309.345 188.511C309.346 188.511 309.346 188.511 309.347 188.511C310.018 187.517 310.74 186.558 311.508 185.638C313.501 183.26 315.855 181.212 318.483 179.57C318.498 179.559 318.517 179.551 318.532 179.54C323.763 176.285 329.963 174.735 335.891 176.076H335.895C336.048 176.11 336.197 176.143 336.35 176.181Z" fill="#E6E6E6"/>
<path d="M336.331 176.379C336.204 176.412 336.078 176.45 335.955 176.487C333.343 177.235 330.823 178.272 328.439 179.577C328.32 179.641 328.201 179.708 328.082 179.775C324.788 181.619 321.797 183.962 319.217 186.721C319.215 186.723 319.214 186.726 319.213 186.729C319.184 186.759 319.15 186.792 319.124 186.822C318.528 187.465 317.954 188.134 317.41 188.821C316.346 190.103 315.488 191.544 314.869 193.092C314.395 194.382 314.228 195.765 314.381 197.131C314.392 197.269 314.411 197.404 314.429 197.542C314.444 197.65 314.459 197.759 314.478 197.871C314.724 199.369 315.148 200.871 315.029 202.399C314.957 203.182 314.719 203.941 314.334 204.626C313.948 205.31 313.421 205.905 312.79 206.371C312.36 206.704 311.901 206.997 311.419 207.245C310.728 207.602 310.009 207.9 309.269 208.135H307.804C308.002 208.079 308.195 208.023 308.393 207.967C309.094 207.768 309.782 207.527 310.453 207.245C310.837 207.085 311.21 206.9 311.571 206.692C313.069 205.829 314.317 204.507 314.578 202.739C314.806 201.192 314.366 199.646 314.105 198.132C314.06 197.871 314.019 197.613 313.997 197.355C313.819 196.045 313.927 194.711 314.314 193.447C314.85 191.87 315.651 190.396 316.683 189.09C317.322 188.24 318.003 187.423 318.725 186.643C318.815 186.542 318.908 186.441 319.005 186.34C321.639 183.561 324.681 181.201 328.026 179.342H328.029C330.516 177.954 333.154 176.858 335.891 176.076H335.895C336.018 176.039 336.145 176.001 336.268 175.968C336.525 175.901 336.584 176.308 336.331 176.379Z" fill="white"/>
<path d="M318.858 186.785C317.958 185.832 317.425 184.589 317.354 183.279C317.283 181.969 317.679 180.676 318.472 179.631C318.633 179.42 318.967 179.661 318.806 179.872C318.066 180.844 317.697 182.048 317.766 183.268C317.834 184.488 318.335 185.644 319.178 186.526C319.361 186.718 319.04 186.975 318.858 186.785Z" fill="white"/>
<path d="M314.252 197.129C316.925 197.225 319.537 196.308 321.566 194.56C321.767 194.386 322.025 194.708 321.824 194.881C319.709 196.697 316.989 197.646 314.208 197.539C313.942 197.529 313.988 197.118 314.252 197.129Z" fill="white"/>
<path d="M328.37 179.469C328.641 179.911 329.018 180.278 329.466 180.537C329.914 180.796 330.419 180.94 330.936 180.955C331.201 180.962 331.155 181.372 330.892 181.366C330.32 181.346 329.763 181.187 329.267 180.901C328.772 180.616 328.353 180.213 328.049 179.728C328.016 179.685 328.002 179.631 328.007 179.577C328.013 179.523 328.039 179.473 328.08 179.438C328.123 179.404 328.177 179.388 328.231 179.394C328.286 179.4 328.335 179.427 328.37 179.469Z" fill="white"/>
<path d="M212.8 255.996C212.26 258.029 210.84 259.721 209.126 260.954C208.847 261.156 208.56 261.343 208.269 261.518C208.18 261.571 208.09 261.627 207.997 261.675C207.897 261.735 207.796 261.791 207.695 261.843H199.636C199.491 261.548 199.349 261.249 199.207 260.954C195.753 253.676 193.328 245.822 193.741 237.822C193.905 234.719 194.555 231.661 195.668 228.761C197.881 222.981 201.92 217.978 207.476 215.459C207.613 215.396 207.759 215.332 207.9 215.273C207.856 215.433 207.811 215.59 207.766 215.751C207.17 217.904 206.749 220.102 206.507 222.323C206.484 222.495 206.466 222.667 206.451 222.843C205.922 228.2 206.392 233.609 207.837 238.793C207.841 238.805 207.844 238.82 207.848 238.831C208.165 239.978 208.533 241.108 208.951 242.22C209.279 243.098 209.633 243.965 210.02 244.817C211.638 248.392 213.806 252.204 212.8 255.996Z" fill="#E6E6E6"/>
<path d="M208.001 215.441C207.923 215.545 207.845 215.646 207.766 215.751C206.13 217.926 204.74 220.277 203.623 222.76C203.563 222.884 203.507 223.007 203.459 223.134C201.928 226.602 200.945 230.288 200.545 234.059C200.541 234.085 200.538 234.112 200.538 234.138C200.445 235.02 200.389 235.909 200.366 236.798C200.284 238.465 200.463 240.135 200.899 241.745C201.297 243.061 201.993 244.265 202.934 245.265C203.027 245.366 203.12 245.467 203.221 245.564C203.295 245.642 203.377 245.721 203.455 245.796C204.208 246.517 205.031 247.186 205.739 247.959C206.064 248.306 206.357 248.681 206.615 249.08C207.027 249.749 207.293 250.497 207.396 251.276C207.499 252.056 207.436 252.848 207.211 253.601C206.704 255.492 205.546 257.087 204.361 258.608C203.768 259.37 203.157 260.14 202.628 260.954C202.434 261.246 202.256 261.541 202.092 261.844H201.622C201.779 261.541 201.95 261.246 202.136 260.954C203.496 258.806 205.43 256.96 206.432 254.595C207.111 252.999 207.316 251.191 206.459 249.625C206.207 249.17 205.903 248.746 205.553 248.362C204.871 247.589 204.055 246.928 203.314 246.229C203.127 246.053 202.945 245.874 202.77 245.687C201.841 244.741 201.125 243.608 200.668 242.362C200.151 240.78 199.907 239.12 199.945 237.456C199.945 236.395 200.001 235.326 200.106 234.265C200.117 234.13 200.132 233.992 200.147 233.854C200.909 227.176 203.439 220.825 207.476 215.459C207.55 215.355 207.629 215.254 207.707 215.153C207.867 214.944 208.161 215.235 208.001 215.441Z" fill="white"/>
<path d="M200.297 234.3C199.006 234.083 197.835 233.413 196.992 232.409C196.148 231.405 195.688 230.134 195.694 228.822C195.694 228.768 195.716 228.717 195.753 228.679C195.791 228.641 195.842 228.619 195.895 228.618C195.948 228.617 196 228.636 196.039 228.673C196.079 228.709 196.102 228.759 196.105 228.813C196.098 230.035 196.527 231.219 197.314 232.152C198.101 233.085 199.195 233.705 200.398 233.9C200.659 233.943 200.557 234.343 200.297 234.3V234.3Z" fill="white"/>
<path d="M202.83 245.34C205.023 243.803 206.557 241.494 207.128 238.873C207.184 238.613 207.583 238.715 207.527 238.974C206.928 241.7 205.326 244.1 203.041 245.694C202.823 245.846 202.613 245.491 202.83 245.34V245.34Z" fill="white"/>
<path d="M203.5 222.717C203.982 222.905 204.503 222.971 205.016 222.907C205.529 222.844 206.019 222.654 206.441 222.354C206.657 222.199 206.866 222.555 206.652 222.708C206.184 223.037 205.643 223.247 205.076 223.318C204.509 223.389 203.933 223.32 203.399 223.117C203.347 223.102 203.303 223.068 203.275 223.021C203.247 222.975 203.238 222.919 203.25 222.866C203.263 222.813 203.297 222.768 203.344 222.74C203.391 222.712 203.447 222.704 203.5 222.717Z" fill="white"/>
<path d="M235.954 229.89C235.824 229.99 235.69 230.091 235.559 230.196C233.79 231.554 232.134 233.053 230.607 234.68C230.488 234.803 230.369 234.93 230.253 235.057L230.25 235.061C226.629 239.002 223.767 243.58 221.806 248.564L221.795 248.598C221.791 248.609 221.788 248.617 221.784 248.628C221.007 250.623 220.38 252.674 219.91 254.763C219.455 256.803 219.083 258.989 218.371 260.954C218.263 261.257 218.144 261.556 218.017 261.843H201.451C201.507 261.548 201.566 261.249 201.626 260.954C202.469 256.625 203.786 252.402 205.553 248.362C205.613 248.228 205.672 248.093 205.739 247.959C206.652 245.963 207.725 244.045 208.948 242.224C208.948 242.223 208.948 242.223 208.948 242.222C208.948 242.222 208.948 242.221 208.949 242.221C208.949 242.22 208.949 242.22 208.95 242.22C208.95 242.22 208.951 242.22 208.951 242.22C209.623 241.226 210.344 240.267 211.112 239.346C213.105 236.969 215.459 234.921 218.088 233.279C218.103 233.267 218.121 233.26 218.136 233.249C223.368 229.994 229.568 228.444 235.496 229.785H235.5C235.652 229.819 235.801 229.852 235.954 229.89Z" fill="#E6E6E6"/>
<path d="M235.935 230.088C235.809 230.121 235.682 230.159 235.559 230.196C232.948 230.944 230.427 231.981 228.044 233.286C227.924 233.349 227.805 233.417 227.686 233.484C224.392 235.328 221.402 237.671 218.821 240.43C218.819 240.432 218.818 240.435 218.818 240.437C218.788 240.467 218.754 240.501 218.728 240.531C218.132 241.174 217.558 241.842 217.014 242.53C215.95 243.812 215.093 245.253 214.473 246.801C214 248.091 213.833 249.474 213.985 250.84C213.996 250.978 214.015 251.112 214.033 251.251C214.048 251.359 214.063 251.467 214.082 251.58C214.328 253.078 214.753 254.58 214.633 256.108C214.561 256.891 214.324 257.65 213.938 258.334C213.552 259.019 213.026 259.614 212.394 260.08C211.965 260.413 211.506 260.705 211.023 260.954C210.332 261.311 209.613 261.609 208.873 261.843H207.408C207.606 261.787 207.8 261.731 207.997 261.675C208.698 261.477 209.386 261.236 210.058 260.954C210.441 260.793 210.815 260.609 211.176 260.401C212.673 259.538 213.922 258.215 214.182 256.448C214.41 254.901 213.97 253.354 213.709 251.841C213.665 251.58 213.624 251.322 213.601 251.064C213.423 249.753 213.531 248.42 213.918 247.156C214.454 245.578 215.256 244.105 216.288 242.799C216.926 241.949 217.608 241.132 218.33 240.352C218.419 240.251 218.512 240.15 218.609 240.049C221.244 237.27 224.286 234.91 227.63 233.051H227.634C230.12 231.662 232.758 230.567 235.496 229.785H235.499C235.622 229.748 235.749 229.71 235.872 229.677C236.129 229.609 236.189 230.017 235.935 230.088Z" fill="white"/>
<path d="M218.462 240.493C217.562 239.541 217.029 238.298 216.958 236.988C216.888 235.677 217.284 234.384 218.076 233.34C218.237 233.129 218.571 233.37 218.41 233.581C217.67 234.552 217.302 235.757 217.37 236.977C217.438 238.197 217.939 239.352 218.783 240.235C218.966 240.427 218.644 240.684 218.462 240.493Z" fill="white"/>
<path d="M213.856 250.837C216.53 250.934 219.141 250.017 221.17 248.268C221.371 248.095 221.629 248.417 221.428 248.59C219.313 250.405 216.594 251.355 213.812 251.248C213.547 251.237 213.592 250.827 213.856 250.837Z" fill="white"/>
<path d="M227.974 233.178C228.245 233.62 228.622 233.986 229.07 234.246C229.518 234.505 230.023 234.649 230.54 234.664C230.805 234.671 230.759 235.081 230.496 235.074C229.925 235.055 229.367 234.895 228.871 234.61C228.376 234.325 227.958 233.922 227.653 233.437C227.621 233.394 227.606 233.339 227.612 233.286C227.617 233.232 227.643 233.182 227.684 233.147C227.727 233.113 227.781 233.097 227.836 233.103C227.89 233.109 227.939 233.136 227.974 233.178Z" fill="white"/>
<path d="M230.718 154.259C233.187 154.259 235.189 152.252 235.189 149.776C235.189 147.299 233.187 145.292 230.718 145.292C228.248 145.292 226.246 147.299 226.246 149.776C226.246 152.252 228.248 154.259 230.718 154.259Z" fill="#F2F2F2"/>
<path d="M286.263 100.551C288.732 100.551 290.734 98.5437 290.734 96.0675C290.734 93.5912 288.732 91.5837 286.263 91.5837C283.793 91.5837 281.792 93.5912 281.792 96.0675C281.792 98.5437 283.793 100.551 286.263 100.551Z" fill="#F2F2F2"/>
<path d="M132.75 10.9674C135.22 10.9674 137.222 8.96 137.222 6.48371C137.222 4.00743 135.22 2 132.75 2C130.281 2 128.279 4.00743 128.279 6.48371C128.279 8.96 130.281 10.9674 132.75 10.9674Z" fill="#F2F2F2"/>
<path d="M66.4646 262.558H344.535C344.659 262.558 344.777 262.509 344.864 262.421C344.951 262.334 345 262.215 345 262.092C345 261.968 344.951 261.85 344.864 261.762C344.777 261.675 344.659 261.626 344.535 261.626H66.4646C66.3414 261.626 66.2232 261.675 66.1361 261.762C66.049 261.85 66 261.968 66 262.092C66 262.215 66.049 262.334 66.1361 262.421C66.2232 262.509 66.3414 262.558 66.4646 262.558Z" fill="#CCCCCC"/>
<path opacity="0.2" d="M236.28 49.3997C238.317 52.8914 239.048 56.9961 238.343 60.9791C237.637 64.962 235.541 68.5632 232.43 71.1381C229.319 73.713 225.395 75.0935 221.362 75.0325C217.328 74.9715 213.448 73.4731 210.415 70.8053C211.657 72.9375 213.345 74.7736 215.364 76.1864C217.384 77.5993 219.685 78.5552 222.109 78.9879C224.533 79.4206 227.022 79.3198 229.403 78.6925C231.785 78.0651 234.001 76.9263 235.9 75.3547C237.799 73.7832 239.335 71.8165 240.401 69.5909C241.467 67.3653 242.038 64.934 242.074 62.4653C242.11 59.9966 241.611 57.5495 240.61 55.2935C239.61 53.0374 238.133 51.0264 236.28 49.3997Z" fill="#231F20"/>
<path opacity="0.2" d="M257.139 26.1603C271.086 44.2431 273.492 70.2314 258.038 87.6956C240.771 107.208 189.996 111.467 155.014 145.168C155.597 148.683 156.438 152.15 157.53 155.54C192.529 118.469 246.298 114.617 264.169 94.4211C281.668 74.6454 276.267 43.9404 257.139 26.1603Z" fill="#231F20"/>
</g>
<defs>
<clipPath id="clip0_37_679">
<rect width="279" height="261" fill="white" transform="translate(66 2)"/>
</clipPath>
</defs>
</svg>
