<svg width="23" height="23" viewBox="0 0 23 23" fill="none" xmlns="http://www.w3.org/2000/svg">
<path d="M19.6334 16.4258L15.7378 12.8838C15.5536 12.7165 15.3116 12.6272 15.0629 12.6349C14.8142 12.6426 14.5782 12.7466 14.4047 12.925L12.1114 15.2835C11.5594 15.1781 10.4497 14.8321 9.30736 13.6927C8.16503 12.5494 7.81907 11.4367 7.71653 10.8886L10.0731 8.59433C10.2517 8.42099 10.3559 8.18495 10.3636 7.93615C10.3713 7.68735 10.2819 7.44533 10.1143 7.26129L6.57323 3.36662C6.40557 3.182 6.17254 3.07002 5.92363 3.05445C5.67473 3.03888 5.42956 3.12096 5.24019 3.28325L3.16061 5.0667C2.99492 5.23299 2.89603 5.4543 2.88269 5.68866C2.86832 5.92824 2.59423 11.6035 6.9949 16.0061C10.834 19.8442 15.6429 20.125 16.9673 20.125C17.1609 20.125 17.2797 20.1192 17.3114 20.1173C17.5457 20.1042 17.7669 20.0049 17.9324 19.8385L19.7149 17.7579C19.8778 17.5692 19.9605 17.3242 19.9452 17.0753C19.93 16.8264 19.8181 16.5933 19.6334 16.4258V16.4258Z" fill="#5D5D5D"/>
</svg>
