<svg width="16" height="19" viewBox="0 0 16 19" fill="none" xmlns="http://www.w3.org/2000/svg">
<g clip-path="url(#clip0_218_678)">
<path d="M15.4209 8.86211C15.3968 9.57086 15.3035 10.2663 15.141 10.9483C14.9786 11.6303 14.7318 12.2454 14.4009 12.7937C14.0759 13.342 13.6607 13.7799 13.1552 14.1076C12.6557 14.4285 12.0539 14.589 11.3499 14.589C10.9708 14.589 10.6217 14.5154 10.3028 14.3684C9.98986 14.2212 9.71904 14.0106 9.49041 13.7365C9.26774 13.4623 9.09623 13.1314 8.97588 12.7436C8.86154 12.3557 8.81639 11.9211 8.84047 11.4397L9.30083 5.55236H11.3318L10.8805 11.4397C10.8504 11.7205 10.8534 11.9512 10.8895 12.1318C10.9316 12.3123 10.9948 12.4527 11.0791 12.553C11.1693 12.6533 11.2716 12.7269 11.386 12.7736C11.5063 12.8138 11.6267 12.8338 11.7471 12.8338C12.0058 12.8338 12.2435 12.7369 12.4601 12.543C12.6828 12.3491 12.8754 12.0782 13.0378 11.7306C13.2063 11.3762 13.3387 10.965 13.435 10.4969C13.5313 10.0222 13.5854 9.51068 13.5975 8.9624C13.6336 8.12661 13.5945 7.35099 13.4802 6.63557C13.3658 5.91341 13.1702 5.26484 12.8934 4.68982C12.6226 4.11479 12.2706 3.62669 11.8373 3.2255C11.404 2.81763 10.8895 2.50672 10.2937 2.29275C9.69801 2.07211 9.01498 1.96178 8.24469 1.96178C7.51656 1.96178 6.84559 2.08882 6.23179 2.3429C5.61795 2.59698 5.06733 2.96139 4.57991 3.43613C4.09849 3.90417 3.68327 4.46248 3.33424 5.11106C2.99123 5.75961 2.72043 6.47843 2.52185 7.26739C2.32326 8.05641 2.20592 8.89554 2.16981 9.78484C2.12769 10.7477 2.17282 11.6169 2.30521 12.3925C2.44361 13.1615 2.66326 13.8334 2.96415 14.4085C3.26503 14.9902 3.64115 15.4716 4.09248 15.8527C4.5438 16.2405 5.06733 16.5314 5.6631 16.7253C6.26488 16.9192 6.92984 17.0161 7.65798 17.0161C8.18152 17.0161 8.71411 16.9526 9.25567 16.8256C9.80329 16.6985 10.2667 16.5448 10.6458 16.3642L10.9888 18.0291C10.5676 18.33 10.041 18.554 9.40916 18.7011C8.77729 18.8482 8.18152 18.9218 7.62188 18.9218C6.647 18.9218 5.75937 18.7981 4.95904 18.5507C4.15867 18.3033 3.45159 17.9322 2.83777 17.4374C2.22999 16.9426 1.72149 16.3275 1.31228 15.592C0.909093 14.8631 0.611216 14.014 0.418647 13.0444C0.226079 12.0749 0.150858 10.9884 0.192982 9.78484C0.235106 8.68829 0.388558 7.65859 0.653337 6.69575C0.918119 5.72619 1.28219 4.84695 1.74556 4.05795C2.21494 3.26897 2.77459 2.5903 3.42451 2.02196C4.07442 1.44693 4.80556 1.00563 5.61795 0.698056C6.43639 0.390481 7.32402 0.236694 8.28083 0.236694C9.23164 0.236694 10.0921 0.370421 10.8624 0.637878C11.6387 0.905331 12.3187 1.29314 12.9025 1.8013C13.4862 2.30279 13.9706 2.9079 14.3557 3.61666C14.7469 4.32541 15.0297 5.12109 15.2042 6.00369C15.3848 6.88631 15.457 7.83909 15.4209 8.86211ZM6.38523 10.0055C6.35514 10.4334 6.35514 10.8145 6.38523 11.1488C6.42132 11.4765 6.4845 11.7506 6.57481 11.9713C6.67108 12.1919 6.79443 12.3591 6.94486 12.4728C7.10135 12.5864 7.28487 12.6433 7.49553 12.6433C7.5978 12.6433 7.71515 12.6165 7.84756 12.563C7.97992 12.5029 8.11533 12.3992 8.25375 12.2521C8.39217 12.0983 8.52754 11.8843 8.65995 11.6102C8.79231 11.3294 8.90665 10.965 9.00296 10.517L9.84243 11.6603C9.70402 12.1418 9.53551 12.563 9.33692 12.9241C9.13833 13.2852 8.90965 13.586 8.65093 13.8268C8.39818 14.0674 8.11533 14.248 7.8024 14.3684C7.49553 14.4887 7.15852 14.5489 6.79142 14.5489C6.35214 14.5489 5.95496 14.4419 5.59992 14.2279C5.2509 14.014 4.95604 13.7097 4.7153 13.3152C4.4746 12.914 4.30009 12.436 4.19177 11.881C4.08947 11.3194 4.06841 10.6942 4.12858 10.0055C4.20079 9.33018 4.32416 8.70497 4.49867 8.12994C4.6792 7.55491 4.90187 7.0434 5.16665 6.59546C5.43142 6.14074 5.73534 5.75294 6.07831 5.43199C6.42132 5.11106 6.79443 4.86701 7.19762 4.69985C7.60682 4.53269 8.03709 4.44911 8.48844 4.44911C9.20456 4.44911 9.76419 4.56278 10.1674 4.79011C10.5766 5.01076 10.9647 5.26484 11.3318 5.55236L10.3389 7.11699C10.1644 6.94311 9.9357 6.77596 9.65285 6.61549C9.37607 6.44834 9.04507 6.36474 8.65995 6.36474C8.29886 6.36474 7.98898 6.445 7.73021 6.60547C7.47145 6.75927 7.25178 6.99328 7.07126 7.30755C6.89074 7.61509 6.74327 7.99622 6.62897 8.45089C6.52064 8.89888 6.43939 9.41706 6.38523 10.0055Z" fill="#5D5D5D"/>
</g>
<defs>
<clipPath id="clip0_218_678">
<rect width="15.7135" height="19" fill="white"/>
</clipPath>
</defs>
</svg>
