<svg width="17" height="19" viewBox="0 0 17 19" fill="none" xmlns="http://www.w3.org/2000/svg">
<g clip-path="url(#clip0_218_645)">
<path d="M15.8145 8.86211C15.79 9.57086 15.6953 10.2663 15.5303 10.9483C15.3653 11.6303 15.1148 12.2454 14.7787 12.7937C14.4487 13.342 14.027 13.7799 13.5137 14.1076C13.0065 14.4285 12.3954 14.589 11.6805 14.589C11.2955 14.589 10.9411 14.5154 10.6172 14.3684C10.2994 14.2212 10.0244 14.0106 9.79222 13.7365C9.5661 13.4623 9.39194 13.1314 9.26973 12.7436C9.15362 12.3557 9.10777 11.9211 9.13222 11.4397L9.5997 5.55236H11.6621L11.2038 11.4397C11.1733 11.7205 11.1763 11.9512 11.213 12.1318C11.2557 12.3123 11.3199 12.4527 11.4055 12.553C11.4972 12.6533 11.601 12.7269 11.7171 12.7736C11.8393 12.8138 11.9616 12.8338 12.0838 12.8338C12.3466 12.8338 12.5879 12.7369 12.8079 12.543C13.034 12.3491 13.2296 12.0782 13.3945 11.7306C13.5657 11.3762 13.7001 10.965 13.7979 10.4969C13.8956 10.0222 13.9506 9.51068 13.9629 8.9624C13.9995 8.12661 13.9598 7.35099 13.8437 6.63557C13.7276 5.91341 13.529 5.26484 13.2479 4.68982C12.9729 4.11479 12.6154 3.62669 12.1755 3.2255C11.7355 2.81763 11.213 2.50672 10.608 2.29275C10.003 2.07211 9.30943 1.96178 8.52722 1.96178C7.78782 1.96178 7.10646 2.08882 6.48316 2.3429C5.85982 2.59698 5.30067 2.96139 4.80571 3.43613C4.31684 3.90417 3.89519 4.46248 3.54075 5.11106C3.19244 5.75961 2.91745 6.47843 2.71579 7.26739C2.51413 8.05641 2.39497 8.89554 2.3583 9.78484C2.31552 10.7477 2.36135 11.6169 2.49579 12.3925C2.63634 13.1615 2.85939 13.8334 3.16494 14.4085C3.47048 14.9902 3.85241 15.4716 4.31073 15.8527C4.76904 16.2405 5.30067 16.5314 5.90567 16.7253C6.51676 16.9192 7.19202 17.0161 7.93143 17.0161C8.46307 17.0161 9.00391 16.9526 9.55385 16.8256C10.1099 16.6985 10.5805 16.5448 10.9655 16.3642L11.3138 18.0291C10.8861 18.33 10.3514 18.554 9.70971 18.7011C9.06806 18.8482 8.46307 18.9218 7.89477 18.9218C6.9048 18.9218 6.00343 18.7981 5.19071 18.5507C4.37795 18.3033 3.65992 17.9322 3.03661 17.4374C2.41941 16.9426 1.90304 16.3275 1.4875 15.592C1.07807 14.8631 0.77558 14.014 0.58003 13.0444C0.384482 12.0749 0.308096 10.9884 0.350872 9.78484C0.393649 8.68829 0.549476 7.65859 0.818354 6.69575C1.08723 5.72619 1.45694 4.84695 1.92748 4.05795C2.40413 3.26897 2.97245 2.5903 3.63242 2.02196C4.2924 1.44693 5.03485 1.00563 5.85982 0.698056C6.69093 0.390481 7.5923 0.236694 8.56392 0.236694C9.52945 0.236694 10.4033 0.370421 11.1855 0.637878C11.9738 0.905331 12.6643 1.29314 13.2571 1.8013C13.8498 2.30279 14.3418 2.9079 14.7329 3.61666C15.1301 4.32541 15.4173 5.12109 15.5945 6.00369C15.7778 6.88631 15.8511 7.83909 15.8145 8.86211ZM6.63897 10.0055C6.60842 10.4334 6.60842 10.8145 6.63897 11.1488C6.67563 11.4765 6.73978 11.7506 6.83149 11.9713C6.92925 12.1919 7.05451 12.3591 7.20727 12.4728C7.36618 12.5864 7.55255 12.6433 7.76646 12.6433C7.87032 12.6433 7.98948 12.6165 8.12394 12.563C8.25835 12.5029 8.39586 12.3992 8.53642 12.2521C8.67698 12.0983 8.81444 11.8843 8.9489 11.6102C9.08332 11.3294 9.19942 10.965 9.29723 10.517L10.1497 11.6603C10.0091 12.1418 9.83802 12.563 9.63636 12.9241C9.43469 13.2852 9.20248 13.586 8.93975 13.8268C8.68308 14.0674 8.39586 14.248 8.07809 14.3684C7.76646 14.4887 7.42424 14.5489 7.05146 14.5489C6.60537 14.5489 6.20204 14.4419 5.84151 14.2279C5.48708 14.014 5.18766 13.7097 4.94319 13.3152C4.69877 12.914 4.52156 12.436 4.41156 11.881C4.30767 11.3194 4.28629 10.6942 4.34739 10.0055C4.42072 9.33018 4.546 8.70497 4.72322 8.12994C4.90654 7.55491 5.13266 7.0434 5.40153 6.59546C5.6704 6.14074 5.97902 5.75294 6.3273 5.43199C6.67563 5.11106 7.05451 4.86701 7.46394 4.69985C7.87947 4.53269 8.31641 4.44911 8.77474 4.44911C9.50195 4.44911 10.0702 4.56278 10.4797 4.79011C10.8952 5.01076 11.2894 5.26484 11.6621 5.55236L10.6538 7.11699C10.4766 6.94311 10.2444 6.77596 9.95718 6.61549C9.67611 6.44834 9.33998 6.36474 8.9489 6.36474C8.58223 6.36474 8.26755 6.445 8.00478 6.60547C7.74201 6.75927 7.51894 6.99328 7.33563 7.30755C7.15231 7.61509 7.00255 7.99622 6.88649 8.45089C6.77648 8.89888 6.69398 9.41706 6.63897 10.0055Z" fill="#5D5D5D"/>
</g>
<defs>
<clipPath id="clip0_218_645">
<rect width="15.9568" height="19" fill="white" transform="translate(0.154785)"/>
</clipPath>
</defs>
</svg>
