<svg width="18" height="23" viewBox="0 0 18 23" fill="none" xmlns="http://www.w3.org/2000/svg">
<path d="M15.3139 16.4259L12.2753 12.8839C12.1317 12.7165 11.943 12.6272 11.749 12.6349C11.555 12.6426 11.3709 12.7466 11.2356 12.9251L9.4468 15.2835C9.01624 15.1781 8.15064 14.8322 7.25962 13.6927C6.3686 12.5494 6.09875 11.4368 6.01877 10.8886L7.85687 8.59436C7.99621 8.42102 8.07749 8.18498 8.08348 7.93618C8.08948 7.68738 8.01974 7.44536 7.88901 7.26132L5.127 3.36665C4.99622 3.18203 4.81446 3.07005 4.62031 3.05448C4.42616 3.03892 4.23493 3.12099 4.08723 3.28328L2.46515 5.06673C2.33592 5.23302 2.25878 5.45433 2.24838 5.68869C2.23717 5.92828 2.02338 11.6035 5.4559 16.0061C8.45039 19.8442 12.2013 20.125 13.2344 20.125C13.3854 20.125 13.4781 20.1193 13.5027 20.1174C13.6855 20.1042 13.858 20.0049 13.9871 19.8385L15.3775 17.7579C15.5046 17.5692 15.569 17.3242 15.5572 17.0753C15.5453 16.8264 15.458 16.5934 15.3139 16.4259Z" fill="#5D5D5D"/>
</svg>
