<svg width="24" height="24" viewBox="0 0 24 24" fill="none" xmlns="http://www.w3.org/2000/svg">
<path d="M19.5804 11.7092C19.5804 10.6521 18.7208 9.79252 17.6637 9.79252H16.7054V6.91752C16.7054 4.2754 14.5559 2.12585 11.9137 2.12585C9.27161 2.12585 7.12207 4.2754 7.12207 6.91752V9.79252H6.16374C5.1067 9.79252 4.24707 10.6521 4.24707 11.7092V19.3759C4.24707 20.4329 5.1067 21.2925 6.16374 21.2925H17.6637C18.7208 21.2925 19.5804 20.4329 19.5804 19.3759V11.7092ZM9.03874 6.91752C9.03874 5.33244 10.3287 4.04252 11.9137 4.04252C13.4988 4.04252 14.7887 5.33244 14.7887 6.91752V9.79252H9.03874V6.91752Z" fill="#5D5D5D"/>
</svg>
