<svg width="356" height="231" viewBox="0 0 356 231" fill="none" xmlns="http://www.w3.org/2000/svg">
<rect x="-3" width="358.268" height="231" fill="white"/>
<g clip-path="url(#clip0_37_679)">
<path d="M71.1023 215.131C69.9331 215.131 68.7615 215.187 67.6174 215.299L67.4508 215.315C59.8617 216.09 54.3106 220.583 54.5389 225.767L54.583 226.704C54.6121 227.297 54.6431 227.934 54.6687 228.641C54.6825 228.989 55.0945 229.257 55.6072 229.257H242.282C255.443 229.164 268.557 229.048 281.256 228.912C283.64 228.917 286.021 228.775 288.387 228.485C291.916 228.003 294.366 227.047 295.876 225.563C297.755 223.723 297.815 221.405 297.701 218.787C297.47 213.5 297.24 207.946 297.011 202.408C296.809 197.528 296.607 192.661 296.406 188.001C296.282 185.236 296.005 182.795 293.872 180.93C291.559 178.912 287.343 177.89 281.338 177.89C281.265 177.89 281.193 177.89 281.12 177.89C262.302 177.967 243.657 185.437 234.723 196.477C233.695 197.748 232.736 199.109 231.809 200.426C230.454 202.447 228.958 204.369 227.333 206.179C226.431 207.155 225.441 208.045 224.377 208.84C224.304 208.898 224.221 208.96 224.133 209.019C223.932 209.17 223.722 209.315 223.518 209.445C222.334 210.236 221.07 210.9 219.747 211.424L219.615 211.475C219.515 211.516 219.407 211.557 219.3 211.595C218.537 211.877 217.76 212.117 216.971 212.313C213.566 213.18 209.693 213.388 205.463 212.93C201.555 212.494 197.713 211.59 194.02 210.238C190.102 208.809 186.435 207.027 182.888 205.303C181.331 204.546 179.719 203.763 178.11 203.022C177.808 202.882 177.51 202.746 177.208 202.609C175.243 201.725 173.461 200.995 171.761 200.377C167.585 198.847 163.216 197.913 158.78 197.601C154.1 197.305 149.976 197.863 146.525 199.255C145.566 199.641 144.64 200.102 143.753 200.634C139.665 203.085 137.146 206.701 134.709 210.199C131.678 214.549 128.543 219.048 122.354 221.38C115.212 224.073 104.787 222.954 97.4121 221.008C95.0933 220.396 92.7773 219.692 90.5374 219.011C89.6328 218.736 88.7276 218.463 87.8217 218.192C86.0415 217.661 84.5846 217.255 83.2368 216.911L82.8104 216.802C82.5733 216.743 82.3359 216.683 82.0943 216.626C80.4933 216.238 79.0025 215.933 77.5344 215.693L77.1871 215.634C76.4907 215.528 75.8397 215.44 75.2008 215.366L74.9458 215.337C73.6693 215.199 72.3862 215.13 71.1023 215.131Z" fill="#F2F2F2"/>
<path d="M172.761 113.864C172.199 113.945 171.626 113.902 171.082 113.737C170.539 113.573 170.038 113.291 169.615 112.911C169.191 112.531 168.856 112.063 168.633 111.539C168.41 111.016 168.304 110.449 168.322 109.88L155.435 104.914L161.27 100.728L172.613 106.086C173.565 106.181 174.449 106.622 175.098 107.327C175.746 108.032 176.115 108.95 176.133 109.909C176.151 110.868 175.818 111.8 175.196 112.529C174.575 113.258 173.708 113.733 172.761 113.864L172.761 113.864Z" fill="#FFB7B7"/>
<path d="M165.397 110.301L167.409 103.184L167.31 103.116L148.462 90.277L132.169 73.8833L122.678 77.6858L123.301 80.6982L123.342 80.7351L145.004 100.192L145.024 100.202L165.397 110.301Z" fill="#3F3D56"/>
<path d="M146.088 126.559L116.918 122.459L119.485 104.51H140.961L146.088 126.559Z" fill="#FFB6B6"/>
<path d="M96.5235 214.448L102.507 215.842L110.718 193.362L101.887 191.304L96.5235 214.448Z" fill="#FFB6B6"/>
<path d="M90.9561 224.108L95.2472 225.108L96.9546 221.224L97.9749 225.744L109.356 228.396C109.902 228.523 110.473 228.472 110.988 228.25C111.502 228.029 111.933 227.648 112.216 227.163C112.5 226.679 112.621 226.116 112.563 225.558C112.505 224.999 112.27 224.474 111.893 224.058L104.264 215.646L105.215 211.539L95.5231 209.883L90.9561 224.108Z" fill="#2F2E41"/>
<path d="M133.445 217.791H139.588L142.511 194.031H133.445V217.791Z" fill="#FFB6B6"/>
<path d="M130.202 228.465H134.608L135.394 224.294L137.408 228.465H149.093C149.653 228.465 150.198 228.285 150.649 227.953C151.1 227.62 151.434 227.151 151.6 226.615C151.767 226.079 151.758 225.503 151.576 224.972C151.393 224.441 151.046 223.983 150.585 223.664L141.254 217.202V212.985L131.44 213.573L130.202 228.465Z" fill="#2F2E41"/>
<path d="M116.549 119.413L145.076 117.137C153.494 136.856 148.142 168.335 141.673 203.771L132.497 204.961L131.785 148.019L108.784 200.992L99.2207 200.502L116.549 119.413Z" fill="#2F2E41"/>
<path d="M133.154 67.4874V57.8095C133.154 54.3701 131.792 51.0716 129.367 48.6396C126.941 46.2076 123.652 44.8413 120.222 44.8413C116.792 44.8413 113.503 46.2076 111.078 48.6396C108.652 51.0716 107.29 54.3701 107.29 57.8095C105.011 62.5724 106.436 64.8368 107.29 67.4874C107.291 67.949 107.474 68.3914 107.799 68.7178C108.125 69.0441 108.566 69.2278 109.026 69.2286H131.417C131.878 69.2281 132.319 69.0445 132.645 68.7181C132.97 68.3917 133.154 67.9491 133.154 67.4874Z" fill="#2F2E41"/>
<path d="M123.414 69.0827C128.65 69.0827 132.895 64.8259 132.895 59.5748C132.895 54.3237 128.65 50.0669 123.414 50.0669C118.177 50.0669 113.932 54.3237 113.932 59.5748C113.932 64.8259 118.177 69.0827 123.414 69.0827Z" fill="#FFB7B7"/>
<path d="M136.214 58.5835C136.211 55.8638 135.132 53.2563 133.214 51.3332C131.296 49.41 128.696 48.3283 125.984 48.3252H124.054C121.341 48.3283 118.741 49.41 116.823 51.3332C114.905 53.2563 113.827 55.8638 113.824 58.5835V58.7771C115.269 59.7682 116.642 59.9131 117.903 58.7771L119.294 54.8705L119.572 58.7771H121.681L122.384 56.8062L122.524 58.7771C125.372 61.2092 130.757 60.0437 136.214 58.7771V58.5835Z" fill="#2F2E41"/>
<path d="M117.885 109.756L142.026 108.835L143.375 92.9978C144.416 90.099 144.433 87.6082 143.425 85.6C142.559 83.9493 141.103 82.6874 139.348 82.0666L134.066 75.6688C133.386 74.8465 132.533 74.1859 131.568 73.7346C130.603 73.2834 129.55 73.0528 128.485 73.0595L114.759 73.1536C114.428 72.9542 112.421 71.9314 108.464 73.6511C104.171 75.5167 105.168 81.9982 105.178 82.0633L105.188 82.1242L105.235 82.1657L114.365 89.8768L117.885 109.756Z" fill="#3F3D56"/>
<path d="M227.897 81.9109C212.319 99.5154 165.449 102.873 134.94 135.188C124.712 103.953 139.202 50.0347 153.642 29.4729C160.577 19.5987 171.139 12.8914 183.005 10.8263C194.871 8.76129 207.069 11.5077 216.916 18.4614C237.421 32.9418 244.543 63.0999 227.897 81.9109Z" fill="#0065FF"/>
<path d="M190.152 65.0225C198.331 65.0225 204.962 58.3736 204.962 50.1717C204.962 41.9698 198.331 35.3208 190.152 35.3208C181.973 35.3208 175.342 41.9698 175.342 50.1717C175.342 58.3736 181.973 65.0225 190.152 65.0225Z" fill="white"/>
<path d="M122.421 151.362C127.778 151.362 132.121 147.007 132.121 141.635C132.121 136.263 127.778 131.908 122.421 131.908C117.064 131.908 112.721 136.263 112.721 141.635C112.721 147.007 117.064 151.362 122.421 151.362Z" fill="#0065FF"/>
<path d="M111.324 140.931C110.902 140.551 110.568 140.082 110.345 139.558C110.123 139.034 110.018 138.467 110.037 137.898C110.057 137.329 110.2 136.771 110.458 136.264C110.716 135.756 111.081 135.312 111.529 134.961L107.071 121.859L114.016 123.668L117.182 135.832C117.719 136.625 117.948 137.589 117.825 138.54C117.701 139.491 117.234 140.364 116.512 140.993C115.789 141.621 114.862 141.962 113.905 141.951C112.949 141.94 112.03 141.577 111.322 140.932L111.324 140.931Z" fill="#FFB7B7"/>
<path d="M109.333 132.98L116.071 129.968L113.808 107.111L115.916 84.0632L106.919 79.194L105.012 81.6043V81.659L104.002 110.804L104.008 110.826L109.333 132.98Z" fill="#3F3D56"/>
<path d="M270.012 176.333C269.541 178.105 268.304 179.581 266.81 180.655C266.566 180.831 266.316 180.994 266.063 181.147C265.985 181.193 265.907 181.242 265.826 181.284C265.738 181.336 265.65 181.385 265.563 181.431H258.537C258.41 181.173 258.287 180.913 258.164 180.655C255.153 174.311 253.038 167.464 253.399 160.491C253.542 157.786 254.108 155.121 255.078 152.593C257.007 147.554 260.528 143.193 265.371 140.998C265.491 140.942 265.618 140.887 265.741 140.835C265.702 140.975 265.663 141.112 265.624 141.252C265.105 143.129 264.738 145.045 264.527 146.981C264.507 147.131 264.491 147.281 264.478 147.434C264.016 152.104 264.426 156.819 265.686 161.338C265.689 161.348 265.693 161.361 265.696 161.371C265.972 162.37 266.292 163.355 266.657 164.325C266.943 165.09 267.252 165.846 267.589 166.588C268.999 169.705 270.889 173.028 270.012 176.333Z" fill="#E6E6E6"/>
<path d="M265.829 140.982C265.761 141.073 265.692 141.161 265.624 141.252C264.198 143.148 262.986 145.197 262.012 147.362C261.96 147.47 261.912 147.577 261.87 147.688C260.535 150.711 259.678 153.924 259.33 157.211C259.326 157.234 259.324 157.257 259.323 157.28C259.242 158.048 259.193 158.824 259.174 159.599C259.101 161.052 259.258 162.507 259.638 163.911C259.985 165.058 260.592 166.108 261.412 166.979C261.493 167.067 261.574 167.155 261.662 167.24C261.727 167.308 261.798 167.377 261.866 167.442C262.522 168.07 263.24 168.653 263.857 169.328C264.14 169.63 264.396 169.957 264.621 170.305C264.98 170.888 265.212 171.54 265.301 172.219C265.391 172.899 265.336 173.589 265.14 174.246C264.699 175.894 263.688 177.284 262.656 178.61C262.139 179.275 261.606 179.945 261.145 180.655C260.976 180.91 260.82 181.167 260.678 181.431H260.268C260.405 181.167 260.554 180.91 260.717 180.655C261.902 178.783 263.588 177.174 264.461 175.112C265.053 173.721 265.231 172.145 264.484 170.78C264.265 170.383 264 170.014 263.695 169.679C263.101 169.005 262.389 168.429 261.743 167.82C261.58 167.666 261.421 167.51 261.269 167.347C260.459 166.523 259.835 165.534 259.437 164.448C258.986 163.069 258.773 161.623 258.807 160.172C258.807 159.247 258.855 158.315 258.946 157.39C258.956 157.273 258.969 157.153 258.982 157.032C259.646 151.211 261.852 145.675 265.371 140.998C265.436 140.907 265.504 140.819 265.572 140.731C265.712 140.548 265.969 140.802 265.829 140.982Z" fill="white"/>
<path d="M259.113 157.421C257.988 157.232 256.967 156.647 256.232 155.773C255.497 154.898 255.096 153.789 255.101 152.646C255.101 152.599 255.12 152.554 255.153 152.521C255.185 152.488 255.23 152.469 255.276 152.468C255.323 152.467 255.368 152.484 255.402 152.516C255.436 152.547 255.457 152.591 255.459 152.638C255.453 153.703 255.827 154.735 256.513 155.549C257.199 156.362 258.152 156.902 259.201 157.072C259.429 157.11 259.34 157.458 259.113 157.421V157.421Z" fill="white"/>
<path d="M261.321 167.045C263.233 165.705 264.57 163.692 265.067 161.407C265.116 161.181 265.464 161.269 265.415 161.495C264.894 163.872 263.497 165.964 261.505 167.354C261.315 167.486 261.133 167.176 261.321 167.045H261.321Z" fill="white"/>
<path d="M261.905 147.324C262.325 147.488 262.779 147.545 263.227 147.49C263.674 147.435 264.101 147.269 264.469 147.007C264.657 146.873 264.84 147.183 264.653 147.316C264.245 147.603 263.774 147.786 263.279 147.848C262.785 147.91 262.283 147.85 261.817 147.673C261.772 147.66 261.733 147.63 261.709 147.589C261.685 147.549 261.677 147.5 261.687 147.454C261.699 147.408 261.729 147.369 261.769 147.344C261.81 147.32 261.859 147.313 261.905 147.324Z" fill="white"/>
<path d="M290.196 153.576C290.082 153.664 289.965 153.752 289.851 153.844C288.309 155.027 286.866 156.334 285.535 157.752C285.431 157.859 285.327 157.97 285.226 158.081L285.223 158.084C282.067 161.519 279.572 165.51 277.863 169.855L277.853 169.884C277.85 169.894 277.847 169.901 277.843 169.911C277.166 171.65 276.62 173.437 276.21 175.259C275.813 177.037 275.489 178.942 274.868 180.655C274.774 180.919 274.67 181.18 274.56 181.431H260.119C260.168 181.173 260.22 180.913 260.272 180.655C261.006 176.881 262.154 173.2 263.695 169.679C263.747 169.562 263.799 169.445 263.857 169.327C264.653 167.588 265.588 165.916 266.654 164.328C266.654 164.328 266.654 164.327 266.654 164.327C266.654 164.326 266.655 164.326 266.655 164.326C266.655 164.325 266.656 164.325 266.656 164.325C266.656 164.325 266.657 164.325 266.657 164.325C267.242 163.458 267.871 162.622 268.541 161.82C270.278 159.748 272.33 157.963 274.621 156.531C274.634 156.521 274.651 156.514 274.664 156.505C279.224 153.668 284.628 152.316 289.796 153.485H289.799C289.932 153.515 290.062 153.544 290.196 153.576Z" fill="#E6E6E6"/>
<path d="M290.179 153.749C290.069 153.778 289.958 153.811 289.851 153.844C287.575 154.496 285.378 155.399 283.3 156.537C283.196 156.592 283.092 156.651 282.988 156.71C280.117 158.317 277.51 160.359 275.261 162.765C275.259 162.766 275.258 162.769 275.258 162.771C275.232 162.797 275.203 162.826 275.18 162.852C274.66 163.413 274.16 163.996 273.686 164.595C272.758 165.712 272.011 166.969 271.471 168.318C271.058 169.442 270.912 170.648 271.045 171.839C271.055 171.959 271.071 172.076 271.087 172.197C271.1 172.291 271.113 172.386 271.13 172.484C271.344 173.79 271.714 175.099 271.61 176.431C271.547 177.114 271.341 177.775 271.004 178.372C270.668 178.969 270.209 179.487 269.658 179.893C269.284 180.184 268.884 180.439 268.463 180.655C267.861 180.967 267.234 181.226 266.589 181.431H265.312C265.485 181.382 265.654 181.333 265.826 181.284C266.437 181.111 267.036 180.901 267.622 180.655C267.956 180.515 268.282 180.354 268.596 180.173C269.902 179.421 270.99 178.268 271.217 176.727C271.416 175.379 271.032 174.031 270.805 172.712C270.766 172.484 270.73 172.259 270.711 172.034C270.556 170.892 270.65 169.729 270.987 168.627C271.454 167.252 272.153 165.968 273.053 164.83C273.609 164.088 274.203 163.376 274.832 162.696C274.91 162.608 274.992 162.52 275.076 162.432C277.373 160.01 280.024 157.953 282.94 156.332H282.943C285.11 155.122 287.41 154.167 289.796 153.485H289.799C289.907 153.453 290.017 153.42 290.124 153.391C290.348 153.332 290.4 153.687 290.179 153.749Z" fill="white"/>
<path d="M274.948 162.82C274.163 161.989 273.699 160.906 273.637 159.764C273.575 158.622 273.921 157.495 274.611 156.584C274.751 156.4 275.043 156.61 274.902 156.794C274.258 157.641 273.936 158.691 273.996 159.755C274.055 160.818 274.492 161.825 275.227 162.594C275.387 162.762 275.106 162.986 274.948 162.82Z" fill="white"/>
<path d="M270.933 171.837C273.263 171.921 275.54 171.121 277.308 169.597C277.484 169.446 277.708 169.727 277.533 169.878C275.69 171.46 273.319 172.288 270.894 172.194C270.663 172.185 270.703 171.828 270.933 171.837Z" fill="white"/>
<path d="M283.239 156.443C283.476 156.828 283.804 157.148 284.195 157.374C284.585 157.6 285.026 157.725 285.476 157.738C285.707 157.744 285.667 158.102 285.438 158.096C284.94 158.079 284.454 157.94 284.022 157.691C283.59 157.442 283.225 157.091 282.96 156.669C282.931 156.631 282.918 156.584 282.923 156.537C282.929 156.49 282.951 156.447 282.987 156.416C283.024 156.386 283.071 156.372 283.119 156.377C283.166 156.383 283.209 156.406 283.239 156.443Z" fill="white"/>
<path d="M182.498 223.151C182.027 224.923 180.789 226.398 179.295 227.473C179.052 227.649 178.801 227.812 178.548 227.965C178.47 228.011 178.392 228.06 178.311 228.102C178.223 228.154 178.136 228.203 178.048 228.248H171.022C170.896 227.991 170.772 227.731 170.649 227.473C167.638 221.129 165.523 214.282 165.884 207.309C166.027 204.604 166.594 201.939 167.563 199.411C169.493 194.372 173.013 190.011 177.856 187.816C177.976 187.76 178.103 187.705 178.227 187.653C178.188 187.793 178.149 187.93 178.11 188.07C177.59 189.946 177.223 191.862 177.012 193.799C176.992 193.949 176.976 194.098 176.963 194.251C176.502 198.921 176.911 203.636 178.171 208.156C178.175 208.166 178.178 208.179 178.181 208.188C178.457 209.188 178.778 210.173 179.142 211.142C179.428 211.908 179.737 212.664 180.075 213.406C181.484 216.523 183.375 219.845 182.498 223.151Z" fill="#E6E6E6"/>
<path d="M178.314 187.799C178.246 187.891 178.178 187.979 178.109 188.07C176.683 189.966 175.471 192.015 174.498 194.18C174.446 194.287 174.397 194.395 174.355 194.506C173.02 197.529 172.164 200.742 171.815 204.029C171.811 204.052 171.809 204.075 171.808 204.098C171.727 204.866 171.678 205.641 171.659 206.417C171.587 207.87 171.743 209.325 172.123 210.729C172.47 211.875 173.077 212.926 173.897 213.797C173.978 213.885 174.059 213.973 174.147 214.058C174.212 214.126 174.283 214.194 174.352 214.26C175.008 214.888 175.725 215.471 176.343 216.145C176.625 216.448 176.881 216.775 177.106 217.123C177.465 217.705 177.697 218.358 177.786 219.037C177.876 219.716 177.821 220.407 177.626 221.064C177.184 222.712 176.174 224.102 175.141 225.428C174.624 226.092 174.092 226.763 173.63 227.473C173.462 227.727 173.306 227.985 173.163 228.249H172.754C172.89 227.985 173.039 227.727 173.202 227.473C174.387 225.601 176.073 223.992 176.947 221.93C177.538 220.539 177.716 218.963 176.969 217.598C176.75 217.201 176.486 216.832 176.18 216.497C175.586 215.823 174.874 215.246 174.228 214.637C174.066 214.484 173.907 214.328 173.754 214.165C172.945 213.341 172.32 212.352 171.922 211.266C171.471 209.887 171.258 208.441 171.292 206.99C171.292 206.065 171.341 205.133 171.432 204.208C171.441 204.091 171.454 203.971 171.467 203.85C172.132 198.029 174.338 192.493 177.856 187.816C177.921 187.724 177.989 187.637 178.058 187.549C178.197 187.366 178.454 187.62 178.314 187.799Z" fill="white"/>
<path d="M171.598 204.239C170.473 204.05 169.452 203.465 168.717 202.591C167.982 201.716 167.581 200.607 167.586 199.463C167.586 199.417 167.605 199.372 167.638 199.339C167.671 199.306 167.715 199.287 167.761 199.286C167.808 199.285 167.853 199.302 167.887 199.334C167.921 199.365 167.942 199.409 167.944 199.456C167.938 200.521 168.312 201.553 168.998 202.366C169.684 203.18 170.638 203.72 171.686 203.89C171.914 203.928 171.825 204.276 171.598 204.239V204.239Z" fill="white"/>
<path d="M173.807 213.862C175.718 212.523 177.056 210.51 177.553 208.225C177.602 207.999 177.95 208.087 177.901 208.313C177.379 210.69 175.983 212.782 173.991 214.171C173.801 214.304 173.618 213.994 173.807 213.863V213.862Z" fill="white"/>
<path d="M174.39 194.142C174.81 194.306 175.265 194.363 175.712 194.308C176.16 194.253 176.586 194.087 176.954 193.825C177.142 193.691 177.325 194 177.138 194.134C176.73 194.421 176.259 194.604 175.764 194.666C175.27 194.728 174.768 194.668 174.303 194.491C174.257 194.478 174.219 194.448 174.194 194.407C174.17 194.367 174.162 194.318 174.172 194.272C174.184 194.226 174.214 194.187 174.255 194.162C174.295 194.138 174.344 194.13 174.39 194.142Z" fill="white"/>
<path d="M202.681 200.394C202.567 200.482 202.45 200.57 202.337 200.661C200.794 201.845 199.351 203.152 198.02 204.57C197.916 204.677 197.812 204.788 197.711 204.899L197.708 204.902C194.552 208.337 192.057 212.328 190.348 216.673L190.338 216.702C190.335 216.712 190.332 216.719 190.329 216.728C189.651 218.467 189.105 220.255 188.695 222.076C188.299 223.855 187.974 225.76 187.353 227.473C187.259 227.737 187.155 227.998 187.045 228.248H172.604C172.653 227.991 172.705 227.731 172.757 227.473C173.491 223.699 174.639 220.018 176.18 216.497C176.232 216.38 176.284 216.263 176.343 216.145C177.138 214.406 178.073 212.733 179.139 211.146C179.139 211.145 179.139 211.145 179.139 211.145C179.14 211.144 179.14 211.144 179.14 211.143C179.14 211.143 179.141 211.143 179.141 211.143C179.142 211.143 179.142 211.143 179.142 211.143C179.728 210.276 180.356 209.44 181.026 208.638C182.763 206.565 184.815 204.78 187.107 203.348C187.12 203.339 187.136 203.332 187.149 203.322C191.709 200.486 197.114 199.134 202.281 200.303H202.285C202.418 200.332 202.548 200.362 202.681 200.394Z" fill="#E6E6E6"/>
<path d="M202.665 200.567C202.554 200.596 202.444 200.629 202.337 200.661C200.06 201.314 197.863 202.217 195.785 203.355C195.681 203.41 195.577 203.469 195.473 203.528C192.602 205.135 189.996 207.177 187.746 209.582C187.745 209.584 187.744 209.586 187.743 209.589C187.717 209.615 187.688 209.644 187.665 209.67C187.146 210.231 186.645 210.814 186.171 211.413C185.244 212.53 184.496 213.786 183.956 215.136C183.543 216.26 183.398 217.466 183.53 218.657C183.54 218.777 183.556 218.894 183.573 219.015C183.586 219.109 183.599 219.204 183.615 219.301C183.829 220.607 184.2 221.917 184.096 223.249C184.032 223.932 183.826 224.593 183.489 225.19C183.153 225.786 182.694 226.305 182.144 226.711C181.769 227.001 181.369 227.257 180.948 227.473C180.347 227.784 179.72 228.044 179.074 228.249H177.798C177.97 228.2 178.139 228.151 178.311 228.102C178.922 227.929 179.522 227.719 180.107 227.473C180.442 227.333 180.767 227.172 181.081 226.991C182.387 226.239 183.475 225.086 183.703 223.545C183.901 222.197 183.517 220.849 183.29 219.529C183.251 219.301 183.215 219.077 183.196 218.852C183.041 217.71 183.135 216.547 183.472 215.445C183.939 214.07 184.638 212.786 185.538 211.647C186.094 210.906 186.688 210.194 187.318 209.514C187.396 209.426 187.477 209.338 187.561 209.25C189.858 206.828 192.509 204.77 195.425 203.15H195.428C197.596 201.94 199.895 200.984 202.281 200.303H202.285C202.392 200.271 202.502 200.238 202.609 200.209C202.834 200.15 202.885 200.505 202.665 200.567Z" fill="white"/>
<path d="M187.433 209.638C186.648 208.807 186.184 207.724 186.122 206.582C186.06 205.439 186.406 204.312 187.096 203.402C187.237 203.218 187.528 203.428 187.387 203.612C186.743 204.459 186.421 205.509 186.481 206.572C186.54 207.636 186.977 208.643 187.712 209.412C187.872 209.579 187.591 209.804 187.433 209.638Z" fill="white"/>
<path d="M183.418 218.655C185.748 218.739 188.025 217.939 189.794 216.415C189.969 216.264 190.193 216.544 190.019 216.695C188.175 218.278 185.804 219.105 183.379 219.012C183.148 219.003 183.188 218.646 183.418 218.655Z" fill="white"/>
<path d="M195.724 203.261C195.961 203.646 196.289 203.965 196.68 204.192C197.07 204.418 197.511 204.543 197.961 204.556C198.193 204.562 198.152 204.92 197.923 204.914C197.425 204.897 196.939 204.758 196.507 204.509C196.075 204.26 195.71 203.909 195.445 203.486C195.416 203.449 195.403 203.402 195.409 203.355C195.414 203.308 195.436 203.264 195.472 203.234C195.509 203.204 195.557 203.19 195.604 203.195C195.651 203.2 195.694 203.224 195.724 203.261Z" fill="white"/>
<path d="M198.116 134.468C200.269 134.468 202.014 132.718 202.014 130.559C202.014 128.401 200.269 126.651 198.116 126.651C195.964 126.651 194.219 128.401 194.219 130.559C194.219 132.718 195.964 134.468 198.116 134.468Z" fill="#F2F2F2"/>
<path d="M246.535 87.6503C248.687 87.6503 250.432 85.9004 250.432 83.7418C250.432 81.5832 248.687 79.8334 246.535 79.8334C244.382 79.8334 242.637 81.5832 242.637 83.7418C242.637 85.9004 244.382 87.6503 246.535 87.6503Z" fill="#F2F2F2"/>
<path d="M112.718 9.5603C114.871 9.5603 116.616 7.81043 116.616 5.65185C116.616 3.49328 114.871 1.74341 112.718 1.74341C110.566 1.74341 108.821 3.49328 108.821 5.65185C108.821 7.81043 110.566 9.5603 112.718 9.5603Z" fill="#F2F2F2"/>
<path d="M54.9371 228.871H297.331C297.438 228.871 297.541 228.828 297.617 228.752C297.693 228.676 297.736 228.573 297.736 228.465C297.736 228.357 297.693 228.254 297.617 228.178C297.541 228.102 297.438 228.059 297.331 228.059H54.9371C54.8297 228.059 54.7267 228.102 54.6507 228.178C54.5748 228.254 54.5321 228.357 54.5321 228.465C54.5321 228.573 54.5748 228.676 54.6507 228.752C54.7267 228.828 54.8297 228.871 54.9371 228.871Z" fill="#CCCCCC"/>
<path opacity="0.2" d="M202.965 43.0615C204.741 46.1053 205.378 49.6834 204.763 53.1553C204.148 56.6272 202.321 59.7664 199.609 62.0109C196.897 64.2554 193.476 65.4588 189.96 65.4056C186.444 65.3525 183.062 64.0463 180.418 61.7208C181.501 63.5794 182.973 65.1799 184.733 66.4115C186.493 67.6431 188.499 68.4763 190.612 68.8535C192.725 69.2307 194.894 69.1429 196.97 68.596C199.046 68.0492 200.979 67.0564 202.634 65.6865C204.289 64.3166 205.628 62.6022 206.557 60.6622C207.486 58.7222 207.984 56.6028 208.015 54.4508C208.047 52.2988 207.611 50.1657 206.739 48.1991C205.867 46.2326 204.58 44.4796 202.965 43.0615Z" fill="#231F20"/>
<path opacity="0.2" d="M221.148 22.804C233.305 38.5667 235.402 61.2206 221.931 76.4441C206.88 93.4532 162.619 97.1658 132.126 126.543C132.633 129.607 133.366 132.629 134.319 135.584C164.827 103.269 211.697 99.9113 227.275 82.3068C242.529 65.0683 237.821 38.3028 221.148 22.804Z" fill="#231F20"/>
</g>
<defs>
<clipPath id="clip0_37_679">
<rect width="243.204" height="227.513" fill="white" transform="translate(54.5321 1.74341)"/>
</clipPath>
</defs>
</svg>
