<svg width="16" height="20" viewBox="0 0 16 20" fill="none" xmlns="http://www.w3.org/2000/svg">
<path d="M15.5804 9.70919C15.5804 8.65215 14.7208 7.79252 13.6637 7.79252H12.7054V4.91752C12.7054 2.2754 10.5559 0.125854 7.91374 0.125854C5.27161 0.125854 3.12207 2.2754 3.12207 4.91752V7.79252H2.16374C1.1067 7.79252 0.24707 8.65215 0.24707 9.70919V17.3759C0.24707 18.4329 1.1067 19.2925 2.16374 19.2925H13.6637C14.7208 19.2925 15.5804 18.4329 15.5804 17.3759V9.70919ZM5.03874 4.91752C5.03874 3.33244 6.32865 2.04252 7.91374 2.04252C9.49882 2.04252 10.7887 3.33244 10.7887 4.91752V7.79252H5.03874V4.91752Z" fill="#5D5D5D"/>
</svg>
