<svg width="17" height="21" viewBox="0 0 17 21" fill="none" xmlns="http://www.w3.org/2000/svg">
<path d="M16.1666 10.5C16.1666 9.44292 15.307 8.58329 14.2499 8.58329H13.2916V5.70829C13.2916 3.06617 11.142 0.916626 8.49992 0.916626C5.85779 0.916626 3.70825 3.06617 3.70825 5.70829V8.58329H2.74992C1.69288 8.58329 0.833252 9.44292 0.833252 10.5V18.1666C0.833252 19.2237 1.69288 20.0833 2.74992 20.0833H14.2499C15.307 20.0833 16.1666 19.2237 16.1666 18.1666V10.5ZM5.62492 5.70829C5.62492 4.12321 6.91483 2.83329 8.49992 2.83329C10.085 2.83329 11.3749 4.12321 11.3749 5.70829V8.58329H5.62492V5.70829Z" fill="#5D5D5D"/>
</svg>
