<svg width="16" height="20" viewBox="0 0 16 20" fill="none" xmlns="http://www.w3.org/2000/svg">
<path d="M15.3333 9.89992C15.3333 8.84288 14.4737 7.98325 13.4167 7.98325H12.4583V5.10826C12.4583 2.46613 10.3088 0.316589 7.66667 0.316589C5.02454 0.316589 2.875 2.46613 2.875 5.10826V7.98325H1.91667C0.859625 7.98325 0 8.84288 0 9.89992V17.5666C0 18.6236 0.859625 19.4833 1.91667 19.4833H13.4167C14.4737 19.4833 15.3333 18.6236 15.3333 17.5666V9.89992ZM4.79167 5.10826C4.79167 3.52317 6.08158 2.23326 7.66667 2.23326C9.25175 2.23326 10.5417 3.52317 10.5417 5.10826V7.98325H4.79167V5.10826Z" fill="#5D5D5D"/>
</svg>
