<svg width="17" height="20" viewBox="0 0 17 20" fill="none" xmlns="http://www.w3.org/2000/svg">
<path d="M16.1668 10.3C16.1668 9.24297 15.3072 8.38334 14.2502 8.38334H13.2918V5.50834C13.2918 2.86622 11.1423 0.716675 8.50016 0.716675C5.85804 0.716675 3.7085 2.86622 3.7085 5.50834V8.38334H2.75016C1.69312 8.38334 0.833496 9.24297 0.833496 10.3V17.9667C0.833496 19.0237 1.69312 19.8833 2.75016 19.8833H14.2502C15.3072 19.8833 16.1668 19.0237 16.1668 17.9667V10.3ZM5.62516 5.50834C5.62516 3.92326 6.91508 2.63334 8.50016 2.63334C10.0852 2.63334 11.3752 3.92326 11.3752 5.50834V8.38334H5.62516V5.50834Z" fill="#5D5D5D"/>
</svg>
