<svg width="24" height="17" viewBox="0 0 24 17" fill="none" xmlns="http://www.w3.org/2000/svg">
<path d="M8.8069 8.79999C8.8069 9.52893 9.13169 10.228 9.70982 10.7434C10.2879 11.2589 11.0721 11.5485 11.8897 11.5485C12.7072 11.5485 13.4914 11.2589 14.0695 10.7434C14.6476 10.228 14.9724 9.52893 14.9724 8.79999C14.9724 8.07105 14.6476 7.37197 14.0695 6.85653C13.4914 6.34109 12.7072 6.05152 11.8897 6.05152C11.0721 6.05152 10.2879 6.34109 9.70982 6.85653C9.13169 7.37197 8.8069 8.07105 8.8069 8.79999ZM23.8408 8.16686C21.2315 3.26625 17.2872 0.799988 11.9997 0.799988C6.70953 0.799988 2.76802 3.26624 0.158697 8.16931C0.054036 8.3669 -0.000244141 8.5827 -0.000244141 8.80121C-0.000244141 9.01973 0.054036 9.23553 0.158697 9.43312C2.76802 14.3337 6.71229 16.8 11.9997 16.8C17.29 16.8 21.2315 14.3337 23.8408 9.43066C24.0527 9.03312 24.0527 8.57177 23.8408 8.16686ZM11.8897 13.119C9.21427 13.119 7.04533 11.1853 7.04533 8.79999C7.04533 6.41471 9.21427 4.48097 11.8897 4.48097C14.565 4.48097 16.734 6.41471 16.734 8.79999C16.734 11.1853 14.565 13.119 11.8897 13.119Z" fill="#5D5D5D"/>
</svg>
