<svg width="17" height="21" viewBox="0 0 17 21" fill="none" xmlns="http://www.w3.org/2000/svg">
<path d="M16.1666 10.5C16.1666 9.44298 15.307 8.58335 14.2499 8.58335H13.2916V5.70835C13.2916 3.06623 11.142 0.916687 8.49992 0.916687C5.85779 0.916687 3.70825 3.06623 3.70825 5.70835V8.58335H2.74992C1.69288 8.58335 0.833252 9.44298 0.833252 10.5V18.1667C0.833252 19.2237 1.69288 20.0834 2.74992 20.0834H14.2499C15.307 20.0834 16.1666 19.2237 16.1666 18.1667V10.5ZM5.62492 5.70835C5.62492 4.12327 6.91483 2.83335 8.49992 2.83335C10.085 2.83335 11.3749 4.12327 11.3749 5.70835V8.58335H5.62492V5.70835Z" fill="#5D5D5D"/>
</svg>
