<svg width="24" height="17" viewBox="0 0 24 17" fill="none" xmlns="http://www.w3.org/2000/svg">
<path d="M8.8069 8.39996C8.8069 9.1289 9.13169 9.82799 9.70982 10.3434C10.2879 10.8589 11.0721 11.1484 11.8897 11.1484C12.7072 11.1484 13.4914 10.8589 14.0695 10.3434C14.6476 9.82799 14.9724 9.1289 14.9724 8.39996C14.9724 7.67102 14.6476 6.97194 14.0695 6.4565C13.4914 5.94107 12.7072 5.6515 11.8897 5.6515C11.0721 5.6515 10.2879 5.94107 9.70982 6.4565C9.13169 6.97194 8.8069 7.67102 8.8069 8.39996ZM23.8408 7.76683C21.2315 2.86622 17.2872 0.399963 11.9997 0.399963C6.70953 0.399963 2.76802 2.86622 0.158697 7.76929C0.054036 7.96688 -0.000244141 8.18268 -0.000244141 8.40119C-0.000244141 8.6197 0.054036 8.8355 0.158697 9.03309C2.76802 13.9337 6.71229 16.4 11.9997 16.4C17.29 16.4 21.2315 13.9337 23.8408 9.03064C24.0527 8.63309 24.0527 8.17174 23.8408 7.76683ZM11.8897 12.719C9.21427 12.719 7.04533 10.7852 7.04533 8.39996C7.04533 6.01469 9.21427 4.08094 11.8897 4.08094C14.565 4.08094 16.734 6.01469 16.734 8.39996C16.734 10.7852 14.565 12.719 11.8897 12.719Z" fill="#5D5D5D"/>
</svg>
